P2
100 100
255
0 0 0 0 0 0 0 0 0 0 0 0 0 0 0 0 0 0 0 0 0 0 0 0 0 0 0 0 0 0 0 0 0 0 0 0 0 0 0 0 0 0 0 0 0 0 0 0 0 0 0 0 0 0 0 0 0 0 0 0 0 0 0 0 0 0 0 0 0 0 0 0 0 0 0 0 0 0 0 0 0 0 0 0 0 0 0 0 0 0 0 0 0 0 0 0 0 0 0 0 
0 145 160 173 180 182 176 165 150 134 0 111 103 98 97 100 107 117 127 137 0 142 140 136 132 129 127 127 128 132 0 146 157 167 173 176 173 167 156 144 0 121 108 95 86 82 82 88 97 108 0 124 126 126 124 122 120 120 122 126 0 141 144 143 140 134 128 122 117 116 0 127 134 140 144 145 142 137 130 124 0 117 119 122 126 130 132 133 131 127 0 113 108 106 106 110 115 122 129 134 
0 151 163 172 177 175 168 156 141 126 0 108 103 102 105 112 121 133 144 153 0 158 156 152 148 144 141 140 141 143 0 154 162 169 173 174 171 165 156 146 0 126 114 102 93 88 86 89 95 103 0 116 118 120 120 121 122 124 127 132 0 144 146 144 139 133 127 120 116 115 0 125 132 137 140 140 138 133 127 121 0 114 116 120 124 127 130 131 129 126 0 113 108 106 107 111 117 124 132 138 
0 158 166 171 171 167 159 147 133 120 0 107 107 110 117 126 138 150 161 169 0 172 169 165 161 157 154 152 151 152 0 158 162 166 167 167 163 158 151 144 0 130 121 111 103 98 95 95 97 101 0 109 112 115 117 120 124 127 132 136 0 145 145 142 137 132 126 121 118 118 0 127 132 137 139 139 137 133 127 122 0 117 118 122 126 129 132 132 131 128 0 116 112 109 109 112 117 124 131 138 
0 162 166 167 163 157 147 136 125 115 0 109 113 120 130 142 153 164 174 180 0 180 178 174 171 167 164 161 159 158 0 158 158 157 156 153 150 147 143 139 0 132 127 121 116 111 107 104 103 103 0 105 108 111 115 120 125 130 135 139 0 143 141 138 133 129 126 123 122 123 0 130 135 138 140 140 138 135 130 126 0 122 123 126 130 133 136 136 135 132 0 122 116 113 111 113 116 121 128 134 
0 164 163 160 153 145 136 126 118 112 0 114 121 132 144 156 166 176 182 185 0 182 180 178 175 172 169 166 163 160 0 154 149 145 140 137 134 132 132 132 0 133 133 132 129 126 122 117 112 108 0 104 106 109 115 120 127 132 137 140 0 138 135 131 128 126 125 125 127 129 0 135 138 141 142 142 141 138 134 131 0 128 130 132 136 138 140 141 140 138 0 128 122 117 113 112 114 117 122 128 
0 161 157 150 142 132 124 117 112 110 0 120 131 143 156 167 176 182 184 184 0 178 176 175 174 172 170 167 163 159 0 146 137 129 122 117 116 117 120 125 0 134 139 142 144 142 138 131 124 115 0 106 106 109 115 121 128 134 138 140 0 133 128 124 122 121 123 126 130 134 0 139 141 143 144 143 142 141 138 136 0 134 136 138 141 143 145 145 144 142 0 133 126 120 114 111 111 112 116 121 
0 155 148 139 128 119 112 108 108 111 0 127 140 154 166 175 181 183 181 176 0 167 166 167 167 167 166 164 160 154 0 136 124 112 103 98 98 102 109 118 0 135 144 152 157 158 154 146 136 124 0 109 108 111 116 123 129 135 138 138 0 126 120 116 115 116 120 126 132 138 0 141 142 143 143 143 143 142 141 140 0 139 140 142 144 146 147 147 146 144 0 136 129 121 115 110 108 108 111 116 
0 146 136 126 115 107 102 102 105 112 0 134 149 162 173 180 182 179 172 164 0 153 152 154 157 159 159 158 154 148 0 126 110 96 86 81 82 89 100 113 0 136 149 161 169 172 169 160 147 133 0 113 111 113 118 124 130 135 138 136 0 120 112 108 107 110 116 123 131 138 0 141 141 141 141 141 141 141 140 140 0 140 141 143 145 146 146 146 145 144 0 137 129 121 113 108 105 105 108 112 
0 134 124 112 103 96 94 96 103 113 0 139 154 167 176 180 178 171 161 150 0 137 137 141 145 149 151 151 148 141 0 116 100 84 74 70 72 81 95 110 0 138 154 169 179 183 180 170 156 140 0 116 114 115 119 125 132 136 138 135 0 116 107 102 101 104 110 118 127 134 0 136 135 135 135 135 135 136 136 136 0 137 138 139 140 141 142 141 140 139 0 133 126 118 111 106 104 104 108 113 
0 0 0 0 0 0 0 0 0 0 0 0 0 0 0 0 0 0 0 0 0 0 0 0 0 0 0 0 0 0 0 0 0 0 0 0 0 0 0 0 0 0 0 0 0 0 0 0 0 0 0 0 0 0 0 0 0 0 0 0 0 0 0 0 0 0 0 0 0 0 0 0 0 0 0 0 0 0 0 0 0 0 0 0 0 0 0 0 0 0 0 0 0 0 0 0 0 0 0 0 
0 108 99 90 84 81 83 89 99 111 0 138 152 163 169 169 163 153 140 127 0 114 116 121 128 134 139 141 140 134 0 110 94 80 71 68 73 83 98 115 0 143 159 174 183 186 182 172 156 139 0 115 112 115 120 127 134 139 142 139 0 118 108 100 95 95 98 103 109 114 0 114 113 112 111 111 112 112 113 114 0 116 118 119 121 122 123 122 121 119 0 114 110 107 105 106 109 115 122 130 
0 94 87 80 75 74 77 83 94 106 0 132 145 154 158 157 152 141 129 117 0 107 109 115 121 127 132 134 133 129 0 109 94 82 74 71 75 84 98 113 0 139 154 168 176 179 175 164 149 132 0 109 108 111 118 127 136 142 146 144 0 123 112 103 98 96 96 100 104 107 0 105 102 100 98 98 98 100 102 104 0 108 111 114 117 119 120 119 118 115 0 110 108 107 108 111 117 124 133 141 
0 82 78 73 69 69 72 79 89 101 0 125 136 143 147 145 139 130 119 109 0 103 106 111 116 121 125 127 127 123 0 108 96 86 79 76 79 86 97 109 0 132 146 158 166 168 164 154 140 124 0 103 103 108 117 127 137 145 150 149 0 128 117 108 102 99 99 100 102 104 0 99 94 90 87 86 87 89 92 96 0 104 109 114 118 121 122 121 119 116 0 110 109 110 113 119 126 134 142 150 
0 76 73 70 67 68 71 77 85 96 0 119 128 133 135 133 128 120 111 104 0 102 105 109 114 117 120 121 120 118 0 109 100 92 86 83 84 88 96 105 0 125 137 148 155 157 153 144 131 117 0 97 99 105 115 127 138 148 153 152 0 132 122 114 108 105 104 104 105 105 0 96 89 83 78 77 77 81 86 92 0 104 111 118 124 128 129 128 125 120 0 113 113 116 120 127 134 143 150 155 
0 76 75 72 71 71 73 77 85 94 0 114 121 125 126 123 119 112 106 102 0 105 108 112 114 115 116 116 115 114 0 111 106 101 96 93 91 93 96 102 0 118 129 139 145 147 144 136 125 112 0 94 96 104 115 128 140 149 154 154 0 135 126 119 114 112 111 111 111 109 0 96 87 78 72 70 71 76 84 92 0 108 117 126 134 138 139 137 133 127 0 118 119 122 127 134 142 149 155 158 
0 82 82 80 79 78 79 82 87 94 0 112 118 120 119 116 112 108 104 103 0 111 114 116 116 116 114 113 111 111 0 115 114 111 107 104 101 99 99 101 0 113 123 132 138 140 138 131 121 110 0 94 97 105 116 129 140 149 154 154 0 135 128 122 120 119 119 119 118 116 0 100 88 77 69 66 68 74 84 95 0 115 126 137 146 150 151 148 141 134 0 124 124 128 134 140 147 153 156 157 
0 93 94 93 91 89 88 89 92 97 0 113 117 118 116 113 109 106 105 107 0 119 122 123 121 118 115 112 110 111 0 120 123 122 120 116 112 107 104 103 0 112 120 128 134 137 135 130 122 112 0 98 100 108 119 130 141 149 153 151 0 133 127 124 124 125 126 127 127 124 0 104 90 78 69 65 67 75 87 100 0 124 137 149 158 163 162 158 150 140 0 128 129 133 138 144 150 154 155 153 
0 107 109 108 106 103 100 99 100 103 0 118 120 119 116 112 109 107 107 111 0 127 130 130 127 122 117 112 110 112 0 127 132 134 133 129 123 117 112 108 0 114 122 129 135 137 137 133 126 117 0 104 106 113 122 132 141 147 149 147 0 130 125 125 126 129 133 135 135 131 0 109 94 79 69 66 68 77 91 106 0 133 147 160 169 173 172 165 155 144 0 131 132 135 140 146 150 152 151 147 
0 122 125 124 121 117 113 110 109 112 0 124 125 123 119 114 110 109 110 115 0 134 137 136 132 126 120 115 113 115 0 133 140 144 144 141 135 128 121 117 0 121 128 134 140 143 142 139 133 125 0 113 114 120 127 134 141 145 145 142 0 124 121 122 126 131 136 139 140 136 0 113 96 81 70 66 69 79 94 111 0 140 155 167 176 179 176 168 156 144 0 130 130 134 139 144 148 149 147 141 
0 0 0 0 0 0 0 0 0 0 0 0 0 0 0 0 0 0 0 0 0 0 0 0 0 0 0 0 0 0 0 0 0 0 0 0 0 0 0 0 0 0 0 0 0 0 0 0 0 0 0 0 0 0 0 0 0 0 0 0 0 0 0 0 0 0 0 0 0 0 0 0 0 0 0 0 0 0 0 0 0 0 0 0 0 0 0 0 0 0 0 0 0 0 0 0 0 0 0 0 
0 140 142 141 138 133 129 126 126 128 0 140 139 135 128 121 115 111 111 116 0 135 139 139 136 132 127 123 122 125 0 145 154 160 163 162 158 153 147 142 0 146 151 157 161 163 162 158 151 143 0 130 129 130 133 136 138 137 134 128 0 111 109 111 115 121 127 131 132 129 0 106 89 74 64 61 64 75 90 107 0 135 149 160 166 167 161 151 138 124 0 110 112 117 124 131 137 139 139 134 
0 140 141 140 137 133 130 128 129 132 0 145 144 139 131 123 116 111 110 114 0 133 139 141 140 137 134 132 132 136 0 155 165 172 175 176 173 169 164 159 0 161 165 169 171 171 168 163 155 147 0 132 130 130 130 131 130 128 124 117 0 100 98 100 104 110 116 120 122 119 0 97 81 67 58 55 59 69 83 99 0 125 137 146 150 150 144 134 121 108 0 96 98 104 112 119 126 130 131 128 
0 137 137 134 130 127 125 125 128 133 0 147 146 141 133 124 116 110 108 112 0 131 138 142 143 143 142 142 143 146 0 165 175 182 187 189 187 183 179 174 0 174 176 178 178 176 171 165 156 147 0 131 128 126 124 123 121 118 113 106 0 90 88 89 94 99 105 109 110 108 0 88 74 62 54 52 55 64 77 91 0 113 123 129 132 130 124 115 104 93 0 83 86 92 99 107 115 120 123 122 
0 132 129 125 121 118 118 120 125 132 0 147 147 141 133 124 115 109 107 110 0 130 138 144 147 149 149 150 151 155 0 172 182 190 196 198 197 194 189 185 0 182 182 182 180 177 171 163 154 144 0 128 123 120 117 115 112 108 103 97 0 82 80 82 86 91 96 100 101 99 0 81 69 59 53 51 54 62 74 86 0 103 110 114 115 112 107 99 90 81 0 75 78 83 90 97 105 111 115 116 
0 125 120 114 109 107 107 112 119 128 0 145 145 140 132 123 115 109 106 109 0 129 138 145 150 153 154 155 157 160 0 176 185 194 200 202 202 199 194 189 0 183 182 180 178 173 167 159 149 140 0 123 118 114 111 108 105 102 98 92 0 79 77 78 81 86 91 94 96 94 0 79 69 60 56 55 58 64 74 83 0 96 100 102 101 98 94 87 81 75 0 72 75 79 84 90 97 103 108 112 
0 118 110 103 97 94 96 102 112 123 0 142 142 138 131 122 114 109 106 109 0 129 139 147 152 155 157 158 159 161 0 175 184 192 198 201 201 197 192 186 0 178 176 173 170 166 160 152 144 135 0 118 112 108 105 103 101 99 96 92 0 80 78 79 82 86 90 93 95 93 0 80 73 66 63 63 65 71 78 85 0 93 94 94 92 90 86 82 78 76 0 76 78 80 83 87 93 98 104 109 
0 112 102 92 86 83 86 93 105 118 0 138 139 136 130 122 115 109 107 110 0 130 140 148 153 155 156 156 156 157 0 169 177 185 191 194 194 190 184 177 0 167 164 162 159 156 151 146 139 131 0 114 108 105 102 101 101 101 100 97 0 87 85 86 88 91 95 97 99 98 0 87 81 77 74 75 77 81 86 91 0 95 94 92 90 87 85 83 82 82 0 86 86 86 87 89 92 96 102 108 
0 109 97 85 77 75 78 86 99 113 0 135 137 134 129 122 116 111 109 112 0 132 142 149 153 154 153 151 149 149 0 159 167 175 180 183 182 178 171 164 0 152 149 148 147 146 143 140 135 128 0 112 107 104 103 103 105 106 107 106 0 97 95 96 98 100 103 106 107 106 0 97 93 90 89 89 92 95 98 101 0 102 99 96 93 90 89 90 91 94 0 100 99 97 95 94 95 97 102 110 
0 109 95 82 74 70 74 82 96 111 0 134 136 134 129 123 117 113 112 115 0 135 144 149 151 151 148 144 140 138 0 146 154 161 167 169 168 164 157 148 0 136 134 134 135 137 137 137 134 129 0 113 109 106 107 109 112 115 118 118 0 110 108 108 110 112 115 117 118 118 0 110 107 105 104 105 107 110 112 114 0 112 108 104 101 99 99 100 104 108 0 115 113 109 105 101 100 101 105 113 
0 0 0 0 0 0 0 0 0 0 0 0 0 0 0 0 0 0 0 0 0 0 0 0 0 0 0 0 0 0 0 0 0 0 0 0 0 0 0 0 0 0 0 0 0 0 0 0 0 0 0 0 0 0 0 0 0 0 0 0 0 0 0 0 0 0 0 0 0 0 0 0 0 0 0 0 0 0 0 0 0 0 0 0 0 0 0 0 0 0 0 0 0 0 0 0 0 0 0 0 
0 120 106 93 84 80 83 92 105 120 0 141 144 142 137 130 124 119 117 120 0 138 145 147 146 142 135 127 120 116 0 123 130 136 141 144 143 138 132 124 0 113 115 120 126 133 140 145 147 145 0 131 127 125 126 128 132 136 139 140 0 133 132 132 134 137 139 142 143 143 0 136 133 132 131 131 132 134 136 137 0 134 129 125 122 120 120 122 127 132 0 140 137 131 125 119 116 115 117 124 
0 121 109 98 91 90 94 103 116 130 0 149 150 147 141 134 128 122 119 121 0 136 141 143 141 136 130 122 115 111 0 115 120 125 128 129 128 125 120 114 0 107 110 118 127 137 146 153 157 157 0 146 141 138 137 138 140 143 145 146 0 141 141 142 144 147 150 153 155 155 0 150 147 145 143 142 141 140 140 140 0 137 134 130 127 125 126 129 133 139 0 148 146 142 136 131 128 127 129 135 
0 119 109 102 98 99 105 115 128 141 0 155 155 152 146 138 131 125 121 120 0 131 135 137 135 132 126 120 114 109 0 109 112 114 115 115 114 112 109 106 0 104 109 119 130 142 153 162 167 169 0 159 154 150 147 145 145 146 147 148 0 146 147 149 151 154 158 161 163 164 0 162 160 156 153 149 146 143 141 139 0 137 134 130 127 126 128 131 136 142 0 153 153 150 146 142 140 139 141 146 
0 116 109 105 105 109 116 127 139 150 0 160 158 154 148 141 133 127 122 120 0 126 129 130 130 128 124 120 115 111 0 107 106 104 103 102 102 101 101 101 0 104 112 123 135 147 159 168 174 176 0 169 163 158 153 149 146 145 145 146 0 148 150 152 155 158 161 164 167 169 0 170 168 164 159 154 148 143 138 135 0 133 131 127 125 124 126 129 135 142 0 155 157 156 154 152 150 149 151 155 
0 112 108 108 111 117 126 137 147 156 0 160 158 154 148 142 135 129 123 120 0 120 122 124 125 125 124 122 119 115 0 107 102 97 93 91 91 92 95 99 0 107 117 128 140 152 162 170 176 178 0 174 168 161 154 148 144 141 140 142 0 147 150 153 155 158 160 163 166 169 0 173 172 168 162 155 147 140 133 129 0 128 126 123 120 120 121 125 131 139 0 155 158 160 159 158 157 156 157 160 
0 109 108 111 116 124 134 143 152 158 0 157 155 151 146 141 136 131 125 121 0 116 117 119 122 124 126 126 125 122 0 109 101 92 86 83 83 86 92 99 0 114 124 134 145 155 163 169 173 175 0 173 167 160 151 144 138 134 133 135 0 144 148 151 152 154 155 157 159 163 0 171 171 168 162 154 145 136 128 123 0 123 121 117 115 114 115 119 125 133 0 151 157 160 161 161 160 159 159 161 
0 109 109 114 121 129 138 147 153 156 0 151 148 145 143 140 136 132 128 123 0 113 113 116 120 124 128 131 131 129 0 112 100 89 81 76 77 83 92 103 0 122 131 141 149 155 160 163 165 166 0 167 161 153 144 136 129 125 124 127 0 140 144 146 147 147 147 148 149 153 0 165 166 164 158 150 141 132 123 118 0 119 116 113 110 108 109 112 118 126 0 146 153 158 160 160 159 157 156 157 
0 110 112 117 125 133 141 147 151 151 0 141 139 138 137 137 136 134 131 126 0 113 112 115 120 126 131 135 137 134 0 115 100 87 77 72 74 81 93 107 0 130 139 146 151 154 155 154 153 153 0 155 151 143 134 126 120 116 116 120 0 136 140 142 141 139 137 136 137 140 0 155 159 158 154 147 138 129 121 116 0 117 115 110 106 104 103 106 111 120 0 141 149 154 157 157 155 152 149 149 
0 115 117 122 129 135 141 145 146 143 0 131 129 130 132 134 136 137 135 130 0 115 113 115 121 127 133 138 140 137 0 116 99 84 74 69 72 81 94 110 0 136 144 149 151 151 148 144 140 138 0 142 138 132 124 117 112 109 111 116 0 134 138 138 136 132 128 125 125 128 0 145 150 151 149 144 137 129 122 118 0 120 117 112 107 103 101 103 108 116 0 138 146 151 152 151 148 144 140 138 
0 0 0 0 0 0 0 0 0 0 0 0 0 0 0 0 0 0 0 0 0 0 0 0 0 0 0 0 0 0 0 0 0 0 0 0 0 0 0 0 0 0 0 0 0 0 0 0 0 0 0 0 0 0 0 0 0 0 0 0 0 0 0 0 0 0 0 0 0 0 0 0 0 0 0 0 0 0 0 0 0 0 0 0 0 0 0 0 0 0 0 0 0 0 0 0 0 0 0 0 
0 134 134 135 137 138 138 137 134 128 0 115 115 119 124 131 136 140 141 138 0 122 119 119 122 125 129 131 131 128 0 106 90 76 67 64 68 78 93 110 0 136 143 145 143 138 131 124 117 114 0 119 118 114 111 108 107 109 114 121 0 141 143 140 135 127 120 113 110 111 0 128 136 141 143 143 142 138 135 134 0 137 134 128 121 116 113 113 116 123 0 144 150 152 150 145 137 129 121 116 
0 142 141 141 141 140 139 135 131 125 0 114 114 118 123 129 134 138 139 136 0 122 118 117 117 119 121 122 121 117 0 98 84 72 64 62 66 77 92 108 0 134 139 140 137 131 123 114 107 103 0 110 110 109 108 107 108 112 118 126 0 145 147 143 136 126 116 107 101 100 0 115 124 130 134 137 137 137 137 137 0 142 140 135 130 126 124 124 128 134 0 153 157 158 154 147 138 127 118 111 
0 146 146 145 144 142 139 135 130 125 0 116 117 120 124 128 131 133 133 131 0 119 115 113 112 112 112 111 110 107 0 92 81 70 64 62 67 77 90 106 0 131 135 135 131 124 115 106 99 96 0 104 106 106 107 108 110 115 121 130 0 150 151 146 137 125 112 101 92 89 0 103 111 117 123 127 130 132 134 136 0 143 143 141 138 136 136 137 140 146 0 162 165 164 160 152 141 129 118 110 
0 148 148 148 146 143 140 135 131 126 0 121 122 123 125 127 128 128 127 124 0 115 111 108 106 104 103 102 100 98 0 89 80 72 67 66 70 78 91 105 0 128 132 131 126 119 110 101 94 92 0 102 105 107 108 110 113 117 124 133 0 152 153 148 138 125 111 98 87 82 0 92 99 106 111 116 120 124 128 132 0 141 143 144 144 145 146 148 151 156 0 169 171 170 165 157 146 134 122 113 
0 147 148 148 147 144 140 136 132 128 0 127 128 128 128 127 126 123 120 117 0 112 108 105 102 99 97 95 94 93 0 89 83 77 73 72 75 82 92 105 0 127 130 129 124 116 107 99 93 92 0 104 108 110 111 113 115 119 125 134 0 153 155 150 140 127 113 98 86 79 0 86 92 97 102 107 111 116 121 126 0 137 142 145 148 151 153 156 159 162 0 172 174 173 169 162 152 140 128 118 
0 144 146 147 146 143 139 135 132 130 0 133 134 133 131 128 124 120 115 112 0 110 107 104 100 97 94 92 91 92 0 94 90 86 82 80 82 87 95 105 0 127 130 128 123 115 107 100 95 95 0 109 113 115 116 117 118 121 125 133 0 152 155 152 143 131 117 102 90 82 0 86 89 92 96 99 103 108 114 120 0 133 139 145 150 154 158 160 162 164 0 171 173 173 171 165 157 146 135 125 
0 140 144 145 144 141 138 134 132 132 0 138 139 138 134 129 123 118 113 110 0 111 109 105 101 97 94 93 93 95 0 102 100 97 94 91 91 93 99 107 0 128 131 129 124 117 109 103 100 101 0 117 121 122 122 121 120 121 124 130 0 150 154 153 146 136 124 110 98 89 0 91 92 93 94 96 99 103 108 115 0 129 137 144 151 155 158 160 161 161 0 165 167 169 169 166 161 152 142 132 
0 136 141 142 142 139 136 132 130 131 0 141 142 141 137 131 124 118 113 110 0 114 113 110 105 101 98 97 98 101 0 112 112 110 106 102 100 100 104 110 0 130 133 131 126 120 113 108 106 108 0 125 129 130 128 125 122 120 121 126 0 146 152 153 150 143 132 120 109 101 0 100 99 98 96 96 97 101 105 112 0 127 136 144 150 154 156 156 155 153 0 154 158 162 165 165 162 156 148 138 
0 134 139 141 139 136 132 129 127 128 0 140 142 142 138 133 127 121 116 115 0 121 120 117 112 108 105 104 106 110 0 124 125 122 118 113 109 107 109 114 0 133 136 134 129 123 117 113 111 114 0 133 136 136 132 127 122 119 118 121 0 142 150 154 154 149 142 132 123 115 0 113 110 107 103 101 101 103 107 113 0 129 137 144 149 152 152 150 146 142 0 142 147 152 157 160 160 156 150 140 
0 0 0 0 0 0 0 0 0 0 0 0 0 0 0 0 0 0 0 0 0 0 0 0 0 0 0 0 0 0 0 0 0 0 0 0 0 0 0 0 0 0 0 0 0 0 0 0 0 0 0 0 0 0 0 0 0 0 0 0 0 0 0 0 0 0 0 0 0 0 0 0 0 0 0 0 0 0 0 0 0 0 0 0 0 0 0 0 0 0 0 0 0 0 0 0 0 0 0 0 
0 137 141 140 136 130 123 117 112 111 0 124 129 133 134 134 134 133 132 134 0 140 139 135 130 126 122 120 121 125 0 139 139 136 131 125 119 116 116 120 0 137 139 138 133 128 122 118 117 120 0 137 139 137 132 125 118 113 110 113 0 133 144 152 157 159 156 152 146 141 0 138 135 130 126 123 122 123 127 133 0 147 152 155 155 151 145 137 129 122 0 119 125 132 138 143 144 143 138 130 
0 133 137 136 131 125 117 109 104 101 0 112 118 124 129 132 135 137 139 142 0 147 145 141 136 131 127 125 126 129 0 140 140 137 132 126 121 117 117 120 0 135 137 136 133 128 124 121 120 123 0 137 138 134 127 119 111 105 103 104 0 124 136 146 154 159 160 159 156 152 0 148 144 140 136 134 134 137 142 148 0 162 165 165 162 156 147 137 127 119 0 116 120 125 130 133 133 131 126 119 
0 127 130 130 126 120 112 104 97 94 0 101 108 115 122 129 135 140 144 147 0 150 147 143 138 134 130 128 128 131 0 138 138 135 130 125 121 118 117 119 0 130 133 133 131 129 126 125 125 127 0 137 135 129 121 112 104 98 94 96 0 113 126 139 150 158 162 164 163 160 0 154 150 146 143 142 144 148 155 162 0 175 177 175 170 162 152 140 129 121 0 117 119 121 123 124 122 119 114 108 
0 120 124 124 122 117 110 102 94 89 0 93 99 108 117 126 135 142 147 150 0 149 146 142 137 134 131 129 129 130 0 134 133 130 127 124 121 119 118 119 0 125 127 128 129 129 129 129 130 131 0 135 131 124 115 105 97 91 88 89 0 104 117 131 144 155 162 166 166 164 0 156 151 147 145 146 149 155 163 172 0 184 185 182 176 167 156 144 133 125 0 121 120 120 118 116 113 109 104 99 
0 114 119 121 120 117 111 104 96 90 0 89 94 103 113 124 134 142 148 150 0 145 141 137 134 131 130 129 129 129 0 128 127 125 123 122 120 119 119 119 0 120 122 124 126 129 131 133 134 135 0 133 127 118 108 99 92 87 85 85 0 98 111 126 140 152 161 166 167 164 0 153 147 143 142 144 149 157 166 176 0 187 187 184 178 170 159 148 138 131 0 126 123 120 115 111 106 101 97 94 
0 111 116 120 122 120 116 110 102 95 0 89 94 102 112 123 133 141 146 148 0 139 134 131 129 128 128 128 128 127 0 122 121 120 120 120 120 121 120 119 0 116 117 120 124 128 132 136 138 138 0 130 122 112 103 95 90 86 85 86 0 96 108 123 137 149 159 164 164 161 0 147 139 135 134 137 143 152 163 173 0 184 184 181 176 169 160 151 142 136 0 131 127 121 114 107 101 96 94 93 
0 110 117 123 126 127 125 120 112 104 0 94 97 104 113 123 132 140 144 144 0 131 126 124 123 124 125 127 127 126 0 117 116 116 117 119 122 123 123 121 0 113 114 117 122 128 134 138 140 139 0 126 117 107 99 93 90 89 90 92 0 99 109 123 136 148 156 160 160 155 0 137 129 123 122 125 132 142 154 165 0 174 175 173 170 164 158 151 145 140 0 135 129 121 113 105 99 95 94 95 
0 114 121 129 134 137 136 132 125 116 0 102 103 108 116 124 132 138 141 139 0 123 119 117 118 121 124 127 128 126 0 115 113 114 117 120 124 127 127 125 0 113 112 116 122 128 135 139 141 139 0 122 112 103 97 94 93 95 98 101 0 106 115 126 138 148 154 156 154 148 0 127 117 111 109 111 118 129 140 151 0 160 162 161 159 156 152 148 144 140 0 137 130 121 112 105 99 97 97 101 
0 121 129 137 144 148 148 145 138 128 0 111 111 114 120 127 134 138 140 136 0 118 114 113 115 119 124 128 130 129 0 115 113 114 118 123 128 131 132 129 0 115 114 117 122 129 135 140 141 138 0 118 108 101 97 96 99 103 109 113 0 116 123 133 142 150 154 154 150 142 0 118 107 99 96 98 104 114 125 135 0 144 146 147 147 146 144 141 139 137 0 134 127 119 111 104 101 100 103 109 
0 0 0 0 0 0 0 0 0 0 0 0 0 0 0 0 0 0 0 0 0 0 0 0 0 0 0 0 0 0 0 0 0 0 0 0 0 0 0 0 0 0 0 0 0 0 0 0 0 0 0 0 0 0 0 0 0 0 0 0 0 0 0 0 0 0 0 0 0 0 0 0 0 0 0 0 0 0 0 0 0 0 0 0 0 0 0 0 0 0 0 0 0 0 0 0 0 0 0 0 
0 142 150 158 165 168 168 164 157 147 0 130 128 130 134 139 143 145 144 139 0 120 116 117 121 128 134 140 144 143 0 129 126 126 129 134 138 141 141 138 0 123 120 121 125 129 133 135 135 131 0 111 103 99 100 104 111 120 129 135 0 139 144 150 156 160 161 158 151 141 0 116 103 93 86 83 85 91 99 108 0 116 118 120 120 120 118 116 114 112 0 110 106 103 100 100 102 107 114 123 
0 149 157 165 172 175 175 172 166 157 0 142 141 143 146 149 151 151 148 142 0 122 119 121 126 134 142 149 153 153 0 138 134 133 133 135 137 139 139 136 0 122 119 119 121 124 126 127 126 122 0 104 99 96 98 104 112 123 133 140 0 145 150 156 162 165 165 162 155 146 0 123 110 97 87 81 80 82 88 94 0 103 106 107 108 107 105 102 99 96 0 94 92 91 92 95 100 108 117 127 
0 152 160 168 175 179 180 177 172 166 0 155 155 157 159 161 161 158 153 144 0 124 121 124 130 139 148 156 162 162 0 147 140 136 134 133 133 133 133 130 0 119 116 115 116 117 117 117 115 112 0 98 94 93 96 103 112 122 133 141 0 148 153 159 164 168 168 165 160 152 0 132 118 104 92 82 77 76 78 83 0 92 96 98 99 98 95 91 86 82 0 79 79 81 85 91 99 109 119 128 
0 152 160 168 175 179 180 179 176 171 0 165 166 169 171 171 169 164 156 146 0 125 122 126 133 142 152 161 168 169 0 153 144 137 131 128 126 125 125 123 0 115 113 111 110 110 109 108 106 103 0 94 91 92 95 101 110 120 130 138 0 147 153 159 165 168 168 166 162 156 0 141 127 112 98 86 78 73 73 76 0 87 91 95 96 94 90 85 79 73 0 69 71 75 81 90 100 110 120 128 
0 149 157 165 171 175 176 176 174 171 0 170 174 178 180 180 176 169 159 146 0 124 122 126 133 143 154 163 170 171 0 154 143 134 126 121 117 116 116 116 0 112 110 108 106 104 102 101 99 97 0 92 91 92 95 100 108 116 125 133 0 144 151 157 162 165 166 165 162 158 0 147 135 120 105 91 81 74 72 74 0 87 93 97 99 97 93 86 79 71 0 66 69 74 82 92 102 112 121 127 
0 144 152 159 164 167 169 169 168 167 0 171 177 183 186 185 181 172 160 146 0 123 121 124 132 141 152 161 167 169 0 151 139 128 118 112 108 107 108 110 0 111 109 107 104 101 99 97 95 94 0 95 95 95 97 101 106 112 119 127 0 140 147 153 158 161 162 161 159 157 0 151 140 126 112 98 87 79 76 78 0 92 100 105 108 106 102 94 85 76 0 69 73 79 87 97 107 116 122 126 
0 138 146 151 155 158 158 158 158 158 0 167 176 183 188 188 183 173 160 145 0 122 119 122 128 137 147 156 161 162 0 145 132 119 109 102 99 99 102 107 0 111 110 108 105 102 99 97 96 96 0 101 101 101 102 103 105 109 114 120 0 135 142 148 152 154 155 154 153 152 0 151 143 131 117 105 94 87 84 86 0 102 112 118 122 121 116 108 98 88 0 79 82 89 97 105 114 121 125 126 
0 134 140 145 147 147 147 146 145 146 0 159 170 180 186 187 183 173 159 144 0 120 117 118 124 132 140 148 153 153 0 135 122 109 100 94 92 94 100 106 0 115 114 112 109 106 103 101 101 102 0 110 111 110 108 107 106 107 110 116 0 132 138 143 146 147 147 146 145 145 0 147 141 132 121 111 102 96 95 97 0 116 126 134 139 138 134 125 114 104 0 94 96 102 109 116 123 127 129 127 
0 132 138 140 140 138 136 133 132 133 0 149 161 173 181 184 180 171 158 142 0 118 114 115 119 125 133 139 143 143 0 125 112 100 92 88 89 93 101 110 0 121 122 120 117 113 110 108 108 111 0 121 122 120 116 113 110 109 110 115 0 131 137 140 142 141 139 136 135 135 0 140 137 130 122 115 108 105 105 109 0 129 141 150 155 156 151 143 132 121 0 110 112 117 122 128 132 135 134 130 
0 0 0 0 0 0 0 0 0 0 0 0 0 0 0 0 0 0 0 0 0 0 0 0 0 0 0 0 0 0 0 0 0 0 0 0 0 0 0 0 0 0 0 0 0 0 0 0 0 0 0 0 0 0 0 0 0 0 0 0 0 0 0 0 0 0 0 0 0 0 0 0 0 0 0 0 0 0 0 0 0 0 0 0 0 0 0 0 0 0 0 0 0 0 0 0 0 0 0 0 
0 144 147 146 141 134 126 119 113 112 0 127 141 154 164 170 169 163 151 138 0 115 110 110 112 117 122 126 128 126 0 109 99 91 88 89 95 105 117 129 0 141 141 140 137 134 132 131 131 134 0 145 145 141 137 132 127 125 125 129 0 144 148 148 144 138 131 124 118 116 0 121 120 118 114 111 110 111 114 121 0 142 154 165 171 173 170 163 153 143 0 132 134 138 143 148 151 152 150 145 
0 156 158 154 147 137 126 115 107 103 0 114 126 138 148 153 154 149 141 129 0 109 106 107 110 114 119 122 124 121 0 104 95 90 89 93 102 113 126 138 0 148 148 147 145 144 143 144 146 150 0 160 159 155 149 143 138 135 135 139 0 155 158 157 152 144 135 125 117 112 0 115 114 112 109 107 107 108 113 119 0 139 151 161 167 169 167 161 153 144 0 135 138 143 149 155 160 161 160 155 
0 167 168 163 154 142 128 115 103 96 0 102 111 121 129 134 136 133 127 119 0 104 103 105 110 115 119 122 122 118 0 100 93 91 92 98 108 120 133 144 0 151 151 150 150 150 152 155 159 165 0 173 171 166 159 153 147 144 144 148 0 164 168 167 162 153 142 131 120 113 0 112 110 107 104 102 102 104 109 115 0 133 143 152 158 161 159 155 148 141 0 134 138 145 153 161 167 170 169 165 
0 176 176 171 161 148 133 117 103 93 0 93 99 105 111 115 117 117 114 109 0 100 101 106 112 118 122 124 123 118 0 99 94 93 96 104 114 126 138 147 0 150 149 149 150 152 157 162 168 175 0 182 179 172 165 158 152 149 150 154 0 171 175 175 171 163 152 139 127 117 0 112 108 104 101 98 98 100 104 110 0 125 134 141 146 149 148 145 140 134 0 130 136 145 155 164 171 175 175 171 
0 179 180 176 167 155 139 123 107 95 0 88 90 92 95 98 101 102 102 101 0 98 103 110 117 124 128 129 126 120 0 101 96 96 101 109 119 131 141 148 0 146 144 143 145 149 156 163 172 179 0 185 180 173 165 158 152 150 151 156 0 174 180 182 179 172 161 148 135 123 0 114 108 103 98 96 95 97 101 106 0 118 124 130 134 136 136 134 131 127 0 126 133 143 155 165 173 177 177 173 
0 178 180 178 171 160 146 130 114 100 0 88 85 84 84 85 88 91 94 97 0 100 107 117 126 133 136 136 132 124 0 104 100 101 106 114 124 134 142 146 0 139 135 135 137 142 149 159 168 177 0 181 175 167 159 152 147 145 147 153 0 172 180 185 185 180 170 157 143 131 0 116 109 103 97 94 94 95 99 103 0 112 116 120 123 125 125 124 122 120 0 121 130 141 153 163 171 176 176 171 
0 171 175 176 172 165 154 139 124 110 0 92 85 80 77 77 80 85 91 97 0 105 115 126 136 143 146 145 139 129 0 108 105 106 111 119 127 135 141 143 0 130 125 123 125 131 139 149 159 168 0 171 164 156 148 141 137 137 140 146 0 167 177 184 187 185 177 165 151 137 0 119 111 104 98 95 94 96 100 104 0 109 112 114 115 116 116 116 115 115 0 118 127 139 151 161 168 171 170 165 
0 160 166 170 171 168 160 149 135 121 0 99 89 80 76 75 78 84 92 101 0 114 125 138 148 155 157 154 146 135 0 113 110 111 116 122 130 136 139 139 0 122 115 112 113 117 125 135 146 154 0 156 149 141 133 127 124 125 129 136 0 158 171 181 187 187 181 171 157 142 0 122 112 104 99 96 96 99 103 107 0 110 111 111 112 112 112 112 113 113 0 118 127 138 149 158 163 165 162 156 
0 147 155 163 168 168 165 156 145 132 0 107 95 85 79 77 80 88 98 108 0 124 137 149 160 166 166 161 152 139 0 117 113 115 119 125 131 136 138 136 0 116 108 103 102 105 112 121 131 139 0 139 132 124 117 112 110 112 117 126 0 149 163 175 183 185 181 172 158 144 0 121 112 105 100 99 101 104 110 114 0 116 115 114 114 114 114 114 115 116 0 122 130 140 149 156 159 158 154 146 
0 0 0 0 0 0 0 0 0 0 0 0 0 0 0 0 0 0 0 0 0 0 0 0 0 0 0 0 0 0 0 0 0 0 0 0 0 0 0 0 0 0 0 0 0 0 0 0 0 0 0 0 0 0 0 0 0 0 0 0 0 0 0 0 0 0 0 0 0 0 0 0 0 0 0 0 0 0 0 0 0 0 0 0 0 0 0 0 0 0 0 0 0 0 0 0 0 0 0 0 
0 125 136 147 157 164 166 163 156 146 0 123 111 102 96 96 100 108 119 129 0 145 156 166 174 177 174 167 156 142 0 120 117 119 124 130 136 140 142 138 0 117 105 96 91 90 92 97 104 110 0 110 105 99 94 92 93 97 104 113 0 135 149 162 170 173 170 161 148 134 0 113 106 102 102 105 111 119 127 134 0 136 135 134 133 132 132 132 133 135 0 140 146 152 156 157 155 150 141 130 
0 120 130 142 153 161 165 166 162 154 0 135 125 117 112 112 115 121 130 139 0 151 160 168 174 176 174 168 158 146 0 127 125 128 132 137 142 145 145 141 0 118 105 93 85 81 81 83 88 93 0 95 92 90 88 89 92 98 106 115 0 135 147 157 164 166 163 155 144 132 0 114 108 105 106 109 115 123 131 138 0 141 140 139 138 137 136 136 137 138 0 143 149 154 157 157 154 146 137 125 
0 119 127 138 148 157 163 166 166 162 0 147 140 134 130 129 131 135 140 146 0 153 159 165 169 171 170 166 159 150 0 136 136 138 143 147 150 151 149 143 0 119 104 90 79 72 70 71 74 79 0 83 84 85 87 91 96 103 112 120 0 137 146 154 159 160 157 150 141 132 0 118 113 111 111 113 118 125 132 138 0 142 141 140 139 138 137 136 136 137 0 143 149 154 157 156 152 145 134 122 
0 120 126 134 143 152 159 164 167 166 0 158 153 150 147 146 146 147 148 150 0 151 154 157 160 162 163 161 158 153 0 145 146 150 154 157 159 157 153 145 0 119 102 87 74 65 61 61 64 69 0 76 80 85 90 97 104 112 120 127 0 139 145 150 152 153 150 145 139 132 0 124 120 118 117 118 120 125 129 134 0 139 139 138 137 135 134 133 132 133 0 139 146 152 156 156 152 144 133 121 
0 122 125 130 137 145 152 159 164 166 0 165 164 163 162 160 159 157 154 151 0 145 145 146 147 149 151 153 154 154 0 152 155 160 164 166 166 162 155 145 0 118 101 84 70 61 56 56 60 65 0 75 82 90 99 107 116 123 130 135 0 142 144 145 145 144 142 139 136 133 0 130 128 125 123 122 122 123 126 129 0 135 136 135 133 131 129 128 127 127 0 134 142 149 154 155 152 145 135 122 
0 125 124 126 130 135 142 150 157 162 0 167 169 171 172 171 168 163 157 150 0 138 134 131 132 134 138 143 148 152 0 156 161 167 172 174 172 166 157 145 0 117 99 82 68 59 55 56 61 68 0 81 90 100 111 120 128 134 139 141 0 142 141 139 137 135 134 133 133 134 0 136 134 131 128 125 122 121 121 123 0 130 131 131 129 127 124 122 121 121 0 129 138 147 153 156 154 148 138 125 
0 127 123 121 121 124 130 137 146 154 0 164 170 175 178 178 174 167 157 147 0 129 121 117 115 117 122 130 138 146 0 156 164 172 177 179 176 169 158 144 0 116 98 81 68 60 58 61 68 77 0 93 103 114 125 134 140 144 146 145 0 141 137 132 128 125 125 126 129 133 0 140 140 137 132 127 123 119 117 118 0 126 128 128 126 124 121 118 116 116 0 125 135 146 154 158 157 152 142 130 
0 128 120 114 111 112 116 124 133 142 0 157 167 175 180 181 177 168 156 143 0 120 110 103 99 101 107 116 127 138 0 153 163 172 179 181 178 169 157 143 0 114 97 82 70 64 64 69 78 89 0 108 119 130 140 147 151 151 150 146 0 137 130 123 118 115 115 118 123 130 0 142 142 140 135 129 123 118 115 115 0 124 126 126 125 123 119 116 114 114 0 124 135 146 156 161 161 157 147 135 
0 125 115 106 101 100 103 109 119 129 0 148 160 170 178 180 177 168 155 140 0 114 102 92 87 87 93 103 116 128 0 146 158 169 176 179 177 169 156 142 0 113 97 83 73 69 72 79 91 104 0 124 134 144 152 156 157 154 149 142 0 130 122 113 107 104 104 109 116 125 0 140 142 140 136 130 125 119 116 116 0 125 128 129 128 125 122 119 116 116 0 126 138 150 160 165 166 161 152 139 
0 0 0 0 0 0 0 0 0 0 0 0 0 0 0 0 0 0 0 0 0 0 0 0 0 0 0 0 0 0 0 0 0 0 0 0 0 0 0 0 0 0 0 0 0 0 0 0 0 0 0 0 0 0 0 0 0 0 0 0 0 0 0 0 0 0 0 0 0 0 0 0 0 0 0 0 0 0 0 0 0 0 0 0 0 0 0 0 0 0 0 0 0 0 0 0 0 0 0 0 
0 111 101 91 85 83 85 91 101 111 0 131 144 157 167 173 172 165 154 141 0 113 99 87 78 75 78 85 95 106 0 124 137 149 160 165 165 160 150 137 0 111 97 87 81 81 88 99 114 128 0 148 155 160 161 159 152 143 133 123 0 109 101 92 86 83 84 89 97 107 0 124 129 132 133 133 132 131 131 133 0 143 146 147 146 144 141 138 136 136 0 145 155 164 171 174 172 166 155 142 
0 111 101 92 87 85 87 93 101 111 0 129 141 153 163 167 166 160 149 136 0 110 96 84 75 71 72 77 86 95 0 110 121 133 142 149 150 147 139 129 0 106 96 89 87 90 99 113 128 144 0 162 166 167 164 158 148 136 124 113 0 102 94 86 79 76 76 80 87 96 0 114 122 128 133 137 139 140 141 144 0 151 154 155 154 153 150 148 146 145 0 152 159 167 172 174 172 167 157 146 
0 115 106 98 93 92 94 99 107 115 0 130 141 151 158 161 159 153 142 130 0 105 93 81 74 70 70 73 80 86 0 96 105 115 123 129 132 131 126 118 0 101 94 91 93 100 111 126 143 158 0 174 175 172 166 155 143 129 116 106 0 98 91 84 77 73 72 74 79 87 0 107 117 127 135 142 146 149 151 152 0 157 158 159 159 158 157 155 153 152 0 155 160 165 169 170 169 165 159 150 
0 121 114 107 103 102 104 108 115 121 0 134 142 149 154 155 152 145 135 123 0 101 90 81 75 71 71 74 78 82 0 87 92 99 105 110 114 114 113 109 0 97 94 95 100 109 122 138 154 169 0 182 181 175 164 152 137 123 110 102 0 98 93 86 79 74 71 72 75 82 0 102 115 128 139 148 154 158 159 158 0 158 159 159 160 160 159 158 157 155 0 154 156 158 160 162 162 161 158 153 
0 128 122 117 114 114 115 119 124 129 0 138 143 148 151 150 146 139 128 117 0 98 89 83 79 77 77 79 81 83 0 82 83 86 90 94 98 100 101 101 0 96 96 100 107 117 131 145 160 174 0 185 181 172 160 146 131 118 107 101 0 102 98 92 86 80 76 74 76 81 0 102 117 132 145 156 162 165 164 161 0 156 155 156 157 158 158 158 157 155 0 149 147 147 148 150 152 153 154 154 
0 134 130 127 125 124 126 128 132 136 0 141 144 147 148 146 141 134 124 114 0 97 92 88 86 86 87 89 90 89 0 82 80 79 80 82 86 90 94 97 0 98 100 106 114 124 136 149 161 172 0 181 176 166 153 139 125 114 106 102 0 109 107 102 96 89 84 81 81 84 0 106 122 139 153 163 169 170 166 160 0 149 148 149 150 152 154 155 155 152 0 141 136 134 133 134 138 143 148 152 
0 138 135 133 132 132 134 136 138 140 0 143 144 146 145 143 138 131 123 114 0 100 97 96 97 99 101 102 102 100 0 87 81 77 75 75 79 84 91 97 0 103 107 113 120 129 138 148 157 165 0 171 165 155 143 130 119 111 106 106 0 118 118 114 108 101 95 90 89 92 0 114 131 148 162 171 175 173 166 156 0 141 138 139 142 145 148 150 150 147 0 132 124 118 116 118 123 130 138 146 
0 139 137 136 136 136 137 139 140 141 0 141 142 143 143 140 137 131 124 117 0 105 105 106 110 113 116 117 117 113 0 96 87 79 75 74 77 84 92 101 0 111 115 121 126 132 137 143 148 153 0 157 151 142 131 121 113 108 107 111 0 127 129 126 120 114 107 102 99 101 0 123 141 158 171 178 179 174 164 151 0 131 128 129 132 137 141 144 145 142 0 122 112 104 100 101 107 116 127 138 
0 135 134 134 134 135 136 137 137 137 0 136 137 139 139 139 137 134 129 123 0 113 114 118 123 127 131 132 131 126 0 106 95 85 79 78 81 88 98 108 0 121 125 128 131 133 134 135 137 139 0 141 136 128 119 112 107 105 108 115 0 134 137 135 131 124 118 112 110 111 0 133 151 167 178 184 182 174 161 145 0 122 119 120 124 130 135 139 140 137 0 115 102 93 87 87 93 103 116 128 
