P3 64 64 255
0 253 0
38 253 0
52 253 0
63 253 0
72 253 0
80 253 0
86 253 0
93 253 0
99 253 0
104 253 0
109 253 0
114 253 0
119 253 0
123 253 0
127 253 0
131 253 0
135 253 0
139 253 0
143 253 0
146 253 0
150 253 0
153 253 0
156 253 0
160 253 0
163 253 0
166 253 0
169 253 0
172 253 0
175 253 0
177 253 0
180 253 0
183 253 0
186 253 0
188 253 0
191 253 0
193 253 0
196 253 0
198 253 0
201 253 0
203 253 0
205 253 0
208 253 0
210 253 0
212 253 0
215 253 0
217 253 0
219 253 0
221 253 0
223 253 0
225 253 0
227 253 0
229 253 0
232 253 0
234 253 0
236 253 0
238 253 0
239 253 0
241 253 0
243 253 0
245 253 0
247 253 0
249 253 0
251 253 0
253 253 0
0 251 0
38 251 0
52 251 0
63 251 0
72 251 0
80 251 0
86 251 0
93 251 0
99 251 0
104 251 0
109 251 0
114 251 0
119 251 0
123 251 0
127 251 0
131 251 0
135 251 0
139 251 0
143 251 0
146 251 0
150 251 0
153 251 0
156 251 0
160 251 0
163 251 0
166 251 0
169 251 0
172 251 0
175 251 0
177 251 0
180 251 0
183 251 0
186 251 0
188 251 0
191 251 0
193 251 0
196 251 0
198 251 0
201 251 0
203 251 0
205 251 0
208 251 0
210 251 0
212 251 0
215 251 0
217 251 0
219 251 0
221 251 0
223 251 0
225 251 0
227 251 0
229 251 0
232 251 0
234 251 0
236 251 0
238 251 0
239 251 0
241 251 0
243 251 0
245 251 0
247 251 0
249 251 0
251 251 0
253 251 0
0 249 0
38 249 0
52 249 0
63 249 0
72 249 0
80 249 0
86 249 0
93 249 0
99 249 0
104 249 0
109 249 0
114 249 0
119 249 0
123 249 0
127 249 0
131 249 0
135 249 0
139 249 0
143 249 0
146 249 0
150 249 0
153 249 0
156 249 0
160 249 0
163 249 0
166 249 0
169 249 0
172 249 0
175 249 0
177 249 0
180 249 0
183 249 0
186 249 0
188 249 0
191 249 0
193 249 0
196 249 0
198 249 0
201 249 0
203 249 0
205 249 0
208 249 0
210 249 0
212 249 0
215 249 0
217 249 0
219 249 0
221 249 0
223 249 0
225 249 0
227 249 0
229 249 0
232 249 0
234 249 0
236 249 0
238 249 0
239 249 0
241 249 0
243 249 0
245 249 0
247 249 0
249 249 0
251 249 0
253 249 0
0 247 0
38 247 0
52 247 0
63 247 0
72 247 0
80 247 0
86 247 0
93 247 0
99 247 0
104 247 0
109 247 0
114 247 0
119 247 0
123 247 0
127 247 0
131 247 0
135 247 0
139 247 0
143 247 0
146 247 0
150 247 0
153 247 0
156 247 0
160 247 0
163 247 0
166 247 0
169 247 0
172 247 0
175 247 0
177 247 0
180 247 0
183 247 0
186 247 0
188 247 0
191 247 0
193 247 0
196 247 0
198 247 0
201 247 0
203 247 0
205 247 0
208 247 0
210 247 0
212 247 0
215 247 0
217 247 0
219 247 0
221 247 0
223 247 0
225 247 0
227 247 0
229 247 0
232 247 0
234 247 0
236 247 0
238 247 0
239 247 0
241 247 0
243 247 0
245 247 0
247 247 0
249 247 0
251 247 0
253 247 0
0 245 0
38 245 0
52 245 0
63 245 0
72 245 0
80 245 0
86 245 0
93 245 0
99 245 0
104 245 0
109 245 0
114 245 0
119 245 0
123 245 0
127 245 0
131 245 0
135 245 0
139 245 0
143 245 0
146 245 0
150 245 0
153 245 0
156 245 0
160 245 0
163 245 0
166 245 0
169 245 0
172 245 0
175 245 0
177 245 0
180 245 0
183 245 0
186 245 0
188 245 0
191 245 0
193 245 0
196 245 0
198 245 0
201 245 0
203 245 0
205 245 0
208 245 0
210 245 0
212 245 0
215 245 0
217 245 0
219 245 0
221 245 0
223 245 0
225 245 0
227 245 0
229 245 0
232 245 0
234 245 0
236 245 0
238 245 0
239 245 0
241 245 0
243 245 0
245 245 0
247 245 0
249 245 0
251 245 0
253 245 0
0 243 0
38 243 0
52 243 0
63 243 0
72 243 0
80 243 0
86 243 0
93 243 0
99 243 0
104 243 0
109 243 0
114 243 0
119 243 0
123 243 0
127 243 0
131 243 0
135 243 0
139 243 0
143 243 0
146 243 0
150 243 0
153 243 0
156 243 0
160 243 0
163 243 0
166 243 0
169 243 0
172 243 0
175 243 0
177 243 0
180 243 0
183 243 0
186 243 0
188 243 0
191 243 0
193 243 0
196 243 0
198 243 0
201 243 0
203 243 0
205 243 0
208 243 0
210 243 0
212 243 0
215 243 0
217 243 0
219 243 0
221 243 0
223 243 0
225 243 0
227 243 0
229 243 0
232 243 0
234 243 0
236 243 0
238 243 0
239 243 0
241 243 0
243 243 0
245 243 0
247 243 0
249 243 0
251 243 0
253 243 0
0 241 0
38 241 0
52 241 0
63 241 0
72 241 0
80 241 0
86 241 0
93 241 0
99 241 0
104 241 0
109 241 0
114 241 0
119 241 0
123 241 0
127 241 0
131 241 0
135 241 0
139 241 0
143 241 0
146 241 0
150 241 0
153 241 0
156 241 0
160 241 0
163 241 0
166 241 0
169 241 0
172 241 0
175 241 0
177 241 0
180 241 0
183 241 0
186 241 0
188 241 0
191 241 0
193 241 0
196 241 0
198 241 0
201 241 0
203 241 0
205 241 0
208 241 0
210 241 0
212 241 0
215 241 0
217 241 0
219 241 0
221 241 0
223 241 0
225 241 0
227 241 0
229 241 0
232 241 0
234 241 0
236 241 0
238 241 0
239 241 0
241 241 0
243 241 0
245 241 0
247 241 0
249 241 0
251 241 0
253 241 0
0 239 0
38 239 0
52 239 0
63 239 0
72 239 0
80 239 0
86 239 0
93 239 0
99 239 0
104 239 0
109 239 0
114 239 0
119 239 0
123 239 0
127 239 0
131 239 0
135 239 0
139 239 0
143 239 0
146 239 0
150 239 0
153 239 0
156 239 0
160 239 0
163 239 0
166 239 0
169 239 0
172 239 0
175 239 0
177 239 0
180 239 0
183 239 0
186 239 0
188 239 0
191 239 0
193 239 0
196 239 0
198 239 0
201 239 0
203 239 0
205 239 0
208 239 0
210 239 0
212 239 0
215 239 0
217 239 0
219 239 0
221 239 0
223 239 0
225 239 0
227 239 0
229 239 0
232 239 0
234 239 0
236 239 0
238 239 0
239 239 0
241 239 0
243 239 0
245 239 0
247 239 0
249 239 0
251 239 0
253 239 0
0 238 0
38 238 0
52 238 0
63 238 0
72 238 0
80 238 0
86 238 0
93 238 0
99 238 0
104 238 0
109 238 0
114 238 0
119 238 0
123 238 0
127 238 0
131 238 0
135 238 0
139 238 0
143 238 0
146 238 0
150 238 0
153 238 0
156 238 0
160 238 0
163 238 0
166 238 0
169 238 0
172 238 0
175 238 0
177 238 0
180 238 0
183 238 0
186 238 0
188 238 0
191 238 0
193 238 0
196 238 0
198 238 0
201 238 0
203 238 0
205 238 0
208 238 0
210 238 0
212 238 0
215 238 0
217 238 0
219 238 0
221 238 0
223 238 0
225 238 0
227 238 0
229 238 0
232 238 0
234 238 0
236 238 0
238 238 0
239 238 0
241 238 0
243 238 0
245 238 0
247 238 0
249 238 0
251 238 0
253 238 0
0 236 0
38 236 0
52 236 0
63 236 0
72 236 0
80 236 0
86 236 0
93 236 0
99 236 0
104 236 0
109 236 0
114 236 0
119 236 0
123 236 0
127 236 0
131 236 0
135 236 0
139 236 0
143 236 0
146 236 0
150 236 0
153 236 0
156 236 0
160 236 0
163 236 0
166 236 0
169 236 0
172 236 0
175 236 0
177 236 0
180 236 0
183 236 0
186 236 0
188 236 0
191 236 0
193 236 0
196 236 0
198 236 0
201 236 0
203 236 0
205 236 0
208 236 0
210 236 0
212 236 0
215 236 0
217 236 0
219 236 0
221 236 0
223 236 0
225 236 0
227 236 0
229 236 0
232 236 0
234 236 0
236 236 0
238 236 0
239 236 0
241 236 0
243 236 0
245 236 0
247 236 0
249 236 0
251 236 0
253 236 0
0 234 0
38 234 0
52 234 0
63 234 0
72 234 0
80 234 0
86 234 0
93 234 0
99 234 0
104 234 0
109 234 0
114 234 0
119 234 0
123 234 0
127 234 0
131 234 0
135 234 0
139 234 0
143 234 0
146 234 0
150 234 0
153 234 0
156 234 0
160 234 0
163 234 0
166 234 0
169 234 0
172 234 0
175 234 0
177 234 0
180 234 0
183 234 0
186 234 0
188 234 0
191 234 0
193 234 0
196 234 0
198 234 0
201 234 0
203 234 0
205 234 0
208 234 0
210 234 0
212 234 0
215 234 0
217 234 0
219 234 0
221 234 0
223 234 0
225 234 0
227 234 0
229 234 0
232 234 0
234 234 0
236 234 0
238 234 0
239 234 0
241 234 0
243 234 0
245 234 0
247 234 0
249 234 0
251 234 0
253 234 0
0 232 0
38 232 0
52 232 0
63 232 0
72 232 0
80 232 0
86 232 0
93 232 0
99 232 0
104 232 0
109 232 0
114 232 0
119 232 0
123 232 0
127 232 0
131 232 0
135 232 0
139 232 0
143 232 0
146 232 0
150 232 0
153 232 0
156 232 0
160 232 0
163 232 0
166 232 0
169 232 0
172 232 0
175 232 0
177 232 0
180 232 0
183 232 0
186 232 0
188 232 0
191 232 0
193 232 0
196 232 0
198 232 0
201 232 0
203 232 0
205 232 0
208 232 0
210 232 0
212 232 0
215 232 0
217 232 0
219 232 0
221 232 0
223 232 0
225 232 0
227 232 0
229 232 0
232 232 0
234 232 0
236 232 0
238 232 0
239 232 0
241 232 0
243 232 0
245 232 0
247 232 0
249 232 0
251 232 0
253 232 0
0 229 0
38 229 0
52 229 0
63 229 0
72 229 0
80 229 0
86 229 0
93 229 0
99 229 0
104 229 0
109 229 0
114 229 0
119 229 0
123 229 0
127 229 0
131 229 0
135 229 0
139 229 0
143 229 0
146 229 0
150 229 0
153 229 0
156 229 0
160 229 0
163 229 0
166 229 0
169 229 0
172 229 0
175 229 0
177 229 0
180 229 0
183 229 0
186 229 0
188 229 0
191 229 0
193 229 0
196 229 0
198 229 0
201 229 0
203 229 0
205 229 0
208 229 0
210 229 0
212 229 0
215 229 0
217 229 0
219 229 0
221 229 0
223 229 0
225 229 0
227 229 0
229 229 0
232 229 0
234 229 0
236 229 0
238 229 0
239 229 0
241 229 0
243 229 0
245 229 0
247 229 0
249 229 0
251 229 0
253 229 0
0 227 0
38 227 0
52 227 0
63 227 0
72 227 0
80 227 0
86 227 0
93 227 0
99 227 0
104 227 0
109 227 0
114 227 0
119 227 0
123 227 0
127 227 0
131 227 0
135 227 0
139 227 0
143 227 0
146 227 0
150 227 0
153 227 0
156 227 0
160 227 0
163 227 0
166 227 0
169 227 0
172 227 0
175 227 0
177 227 0
180 227 0
183 227 0
186 227 0
188 227 0
191 227 0
193 227 0
196 227 0
198 227 0
201 227 0
203 227 0
205 227 0
208 227 0
210 227 0
212 227 0
215 227 0
217 227 0
219 227 0
221 227 0
223 227 0
225 227 0
227 227 0
229 227 0
232 227 0
234 227 0
236 227 0
238 227 0
239 227 0
241 227 0
243 227 0
245 227 0
247 227 0
249 227 0
251 227 0
253 227 0
0 225 0
38 225 0
52 225 0
63 225 0
72 225 0
80 225 0
86 225 0
93 225 0
99 225 0
104 225 0
109 225 0
114 225 0
119 225 0
123 225 0
127 225 0
131 225 0
135 225 0
139 225 0
143 225 0
146 225 0
150 225 0
153 225 0
156 225 0
160 225 0
163 225 0
166 225 0
169 225 0
172 225 0
175 225 0
177 225 0
180 225 0
183 225 0
186 225 0
188 225 0
191 225 0
193 225 0
196 225 0
198 225 0
201 225 0
203 225 0
205 225 0
208 225 0
210 225 0
212 225 0
215 225 0
217 225 0
219 225 0
221 225 0
223 225 0
225 225 0
227 225 0
229 225 0
232 225 0
234 225 0
236 225 0
238 225 0
239 225 0
241 225 0
243 225 0
245 225 0
247 225 0
249 225 0
251 225 0
253 225 0
0 223 0
38 223 0
52 223 0
63 223 0
72 223 0
80 223 0
86 223 0
93 223 0
99 223 0
104 223 0
109 223 0
114 223 0
119 223 0
123 223 0
127 223 0
131 223 0
135 223 0
139 223 0
143 223 0
146 223 0
150 223 0
153 223 0
156 223 0
160 223 0
163 223 0
166 223 0
169 223 0
172 223 0
175 223 0
177 223 0
180 223 0
183 223 0
186 223 0
188 223 0
191 223 0
193 223 0
196 223 0
198 223 0
201 223 0
203 223 0
205 223 0
208 223 0
210 223 0
212 223 0
215 223 0
217 223 0
219 223 0
221 223 0
223 223 0
225 223 0
227 223 0
229 223 0
232 223 0
234 223 0
236 223 0
238 223 0
239 223 0
241 223 0
243 223 0
245 223 0
247 223 0
249 223 0
251 223 0
253 223 0
0 221 0
38 221 0
52 221 0
63 221 0
72 221 0
80 221 0
86 221 0
93 221 0
99 221 0
104 221 0
109 221 0
114 221 0
119 221 0
123 221 0
127 221 0
131 221 0
135 221 0
139 221 0
143 221 0
146 221 0
150 221 0
153 221 0
156 221 0
160 221 0
163 221 0
166 221 0
169 221 0
172 221 0
175 221 0
177 221 0
180 221 0
183 221 0
186 221 0
188 221 0
191 221 0
193 221 0
196 221 0
198 221 0
201 221 0
203 221 0
205 221 0
208 221 0
210 221 0
212 221 0
215 221 0
217 221 0
219 221 0
221 221 0
223 221 0
225 221 0
227 221 0
229 221 0
232 221 0
234 221 0
236 221 0
238 221 0
239 221 0
241 221 0
243 221 0
245 221 0
247 221 0
249 221 0
251 221 0
253 221 0
0 219 0
38 219 0
52 219 0
63 219 0
72 219 0
80 219 0
86 219 0
93 219 0
99 219 0
104 219 0
109 219 0
114 219 0
119 219 0
123 219 0
127 219 0
131 219 0
135 219 0
139 219 0
143 219 0
146 219 0
150 219 0
153 219 0
156 219 0
160 219 0
163 219 0
166 219 0
169 219 0
172 219 0
175 219 0
177 219 0
180 219 0
183 219 0
186 219 0
188 219 0
191 219 0
193 219 0
196 219 0
198 219 0
201 219 0
203 219 0
205 219 0
208 219 0
210 219 0
212 219 0
215 219 0
217 219 0
219 219 0
221 219 0
223 219 0
225 219 0
227 219 0
229 219 0
232 219 0
234 219 0
236 219 0
238 219 0
239 219 0
241 219 0
243 219 0
245 219 0
247 219 0
249 219 0
251 219 0
253 219 0
0 217 0
38 217 0
52 217 0
63 217 0
72 217 0
80 217 0
86 217 0
93 217 0
99 217 0
104 217 0
109 217 0
114 217 0
119 217 0
123 217 0
127 217 0
131 217 0
135 217 0
139 217 0
143 217 0
146 217 0
150 217 0
153 217 0
156 217 0
160 217 0
163 217 0
166 217 0
169 217 0
172 217 0
175 217 0
177 217 0
180 217 0
183 217 0
186 217 0
188 217 0
191 217 0
193 217 0
196 217 0
198 217 0
201 217 0
203 217 0
205 217 0
208 217 0
210 217 0
212 217 0
215 217 0
217 217 0
219 217 0
221 217 0
223 217 0
225 217 0
227 217 0
229 217 0
232 217 0
234 217 0
236 217 0
238 217 0
239 217 0
241 217 0
243 217 0
245 217 0
247 217 0
249 217 0
251 217 0
253 217 0
0 215 0
38 215 0
52 215 0
63 215 0
72 215 0
80 215 0
86 215 0
93 215 0
99 215 0
104 215 0
109 215 0
114 215 0
119 215 0
123 215 0
127 215 0
131 215 0
135 215 0
139 215 0
143 215 0
146 215 0
150 215 0
153 215 0
156 215 0
160 215 0
163 215 0
166 215 0
169 215 0
172 215 0
175 215 0
177 215 0
180 215 0
183 215 0
186 215 0
188 215 0
191 215 0
193 215 0
196 215 0
198 215 0
201 215 0
203 215 0
205 215 0
208 215 0
210 215 0
212 215 0
215 215 0
217 215 0
219 215 0
221 215 0
223 215 0
225 215 0
227 215 0
229 215 0
232 215 0
234 215 0
236 215 0
238 215 0
239 215 0
241 215 0
243 215 0
245 215 0
247 215 0
249 215 0
251 215 0
253 215 0
0 212 0
38 212 0
52 212 0
63 212 0
72 212 0
80 212 0
86 212 0
93 212 0
99 212 0
104 212 0
109 212 0
114 212 0
119 212 0
123 212 0
127 212 0
131 212 0
135 212 0
139 212 0
143 212 0
146 212 0
150 212 0
153 212 0
156 212 0
160 212 0
163 212 0
166 212 0
169 212 0
172 212 0
175 212 0
177 212 0
180 212 0
183 212 0
186 212 0
188 212 0
191 212 0
193 212 0
196 212 0
198 212 0
201 212 0
203 212 0
205 212 0
208 212 0
210 212 0
212 212 0
215 212 0
217 212 0
219 212 0
221 212 0
223 212 0
225 212 0
227 212 0
229 212 0
232 212 0
234 212 0
236 212 0
238 212 0
239 212 0
241 212 0
243 212 0
245 212 0
247 212 0
249 212 0
251 212 0
253 212 0
0 210 0
38 210 0
52 210 0
63 210 0
72 210 0
80 210 0
86 210 0
93 210 0
99 210 0
104 210 0
109 210 0
114 210 0
119 210 0
123 210 0
127 210 0
131 210 0
135 210 0
139 210 0
143 210 0
146 210 0
150 210 0
153 210 0
156 210 0
160 210 0
163 210 0
166 210 0
169 210 0
172 210 0
175 210 0
177 210 0
180 210 0
183 210 0
186 210 0
188 210 0
191 210 0
193 210 0
196 210 0
198 210 0
201 210 0
203 210 0
205 210 0
208 210 0
210 210 0
212 210 0
215 210 0
217 210 0
219 210 0
221 210 0
223 210 0
225 210 0
227 210 0
229 210 0
232 210 0
234 210 0
236 210 0
238 210 0
239 210 0
241 210 0
243 210 0
245 210 0
247 210 0
249 210 0
251 210 0
253 210 0
0 208 0
38 208 0
52 208 0
63 208 0
72 208 0
80 208 0
86 208 0
93 208 0
99 208 0
104 208 0
109 208 0
114 208 0
119 208 0
123 208 0
127 208 0
131 208 0
135 208 0
139 208 0
143 208 0
146 208 0
150 208 0
153 208 0
156 208 0
160 208 0
163 208 0
166 208 0
169 208 0
172 208 0
175 208 0
177 208 0
180 208 0
183 208 0
186 208 0
188 208 0
191 208 0
193 208 0
196 208 0
198 208 0
201 208 0
203 208 0
205 208 0
208 208 0
210 208 0
212 208 0
215 208 0
217 208 0
219 208 0
221 208 0
223 208 0
225 208 0
227 208 0
229 208 0
232 208 0
234 208 0
236 208 0
238 208 0
239 208 0
241 208 0
243 208 0
245 208 0
247 208 0
249 208 0
251 208 0
253 208 0
0 205 0
38 205 0
52 205 0
63 205 0
72 205 0
80 205 0
86 205 0
93 205 0
99 205 0
104 205 0
109 205 0
114 205 0
119 205 0
123 205 0
127 205 0
131 205 0
135 205 0
139 205 0
143 205 0
146 205 0
150 205 0
153 205 0
156 205 0
160 205 0
163 205 0
166 205 0
169 205 0
172 205 0
175 205 0
177 205 0
180 205 0
183 205 0
186 205 0
188 205 0
191 205 0
193 205 0
196 205 0
198 205 0
201 205 0
203 205 0
205 205 0
208 205 0
210 205 0
212 205 0
215 205 0
217 205 0
219 205 0
221 205 0
223 205 0
225 205 0
227 205 0
229 205 0
232 205 0
234 205 0
236 205 0
238 205 0
239 205 0
241 205 0
243 205 0
245 205 0
247 205 0
249 205 0
251 205 0
253 205 0
0 203 0
38 203 0
52 203 0
63 203 0
72 203 0
80 203 0
86 203 0
93 203 0
99 203 0
104 203 0
109 203 0
114 203 0
119 203 0
123 203 0
127 203 0
131 203 0
135 203 0
139 203 0
143 203 0
146 203 0
150 203 0
153 203 0
156 203 0
160 203 0
163 203 0
166 203 0
169 203 0
172 203 0
175 203 0
177 203 0
180 203 0
183 203 0
186 203 0
188 203 0
191 203 0
193 203 0
196 203 0
198 203 0
201 203 0
203 203 0
205 203 0
208 203 0
210 203 0
212 203 0
215 203 0
217 203 0
219 203 0
221 203 0
223 203 0
225 203 0
227 203 0
229 203 0
232 203 0
234 203 0
236 203 0
238 203 0
239 203 0
241 203 0
243 203 0
245 203 0
247 203 0
249 203 0
251 203 0
253 203 0
0 201 0
38 201 0
52 201 0
63 201 0
72 201 0
80 201 0
86 201 0
93 201 0
99 201 0
104 201 0
109 201 0
114 201 0
119 201 0
123 201 0
127 201 0
131 201 0
135 201 0
139 201 0
143 201 0
146 201 0
150 201 0
153 201 0
156 201 0
160 201 0
163 201 0
166 201 0
169 201 0
172 201 0
175 201 0
177 201 0
180 201 0
183 201 0
186 201 0
188 201 0
191 201 0
193 201 0
196 201 0
198 201 0
201 201 0
203 201 0
205 201 0
208 201 0
210 201 0
212 201 0
215 201 0
217 201 0
219 201 0
221 201 0
223 201 0
225 201 0
227 201 0
229 201 0
232 201 0
234 201 0
236 201 0
238 201 0
239 201 0
241 201 0
243 201 0
245 201 0
247 201 0
249 201 0
251 201 0
253 201 0
0 198 0
38 198 0
52 198 0
63 198 0
72 198 0
80 198 0
86 198 0
93 198 0
99 198 0
104 198 0
109 198 0
114 198 0
119 198 0
123 198 0
127 198 0
131 198 0
135 198 0
139 198 0
143 198 0
146 198 0
150 198 0
153 198 0
156 198 0
160 198 0
163 198 0
166 198 0
169 198 0
172 198 0
175 198 0
177 198 0
180 198 0
183 198 0
186 198 0
188 198 0
191 198 0
193 198 0
196 198 0
198 198 0
201 198 0
203 198 0
205 198 0
208 198 0
210 198 0
212 198 0
215 198 0
217 198 0
219 198 0
221 198 0
223 198 0
225 198 0
227 198 0
229 198 0
232 198 0
234 198 0
236 198 0
238 198 0
239 198 0
241 198 0
243 198 0
245 198 0
247 198 0
249 198 0
251 198 0
253 198 0
0 196 0
38 196 0
52 196 0
63 196 0
72 196 0
80 196 0
86 196 0
93 196 0
99 196 0
104 196 0
109 196 0
114 196 0
119 196 0
123 196 0
127 196 0
131 196 0
135 196 0
139 196 0
143 196 0
146 196 0
150 196 0
153 196 0
156 196 0
160 196 0
163 196 0
166 196 0
169 196 0
172 196 0
175 196 0
177 196 0
180 196 0
183 196 0
186 196 0
188 196 0
191 196 0
193 196 0
196 196 0
198 196 0
201 196 0
203 196 0
205 196 0
208 196 0
210 196 0
212 196 0
215 196 0
217 196 0
219 196 0
221 196 0
223 196 0
225 196 0
227 196 0
229 196 0
232 196 0
234 196 0
236 196 0
238 196 0
239 196 0
241 196 0
243 196 0
245 196 0
247 196 0
249 196 0
251 196 0
253 196 0
0 193 0
38 193 0
52 193 0
63 193 0
72 193 0
80 193 0
86 193 0
93 193 0
99 193 0
104 193 0
109 193 0
114 193 0
119 193 0
123 193 0
127 193 0
131 193 0
135 193 0
139 193 0
143 193 0
146 193 0
150 193 0
153 193 0
156 193 0
160 193 0
163 193 0
166 193 0
169 193 0
172 193 0
175 193 0
177 193 0
180 193 0
183 193 0
186 193 0
188 193 0
191 193 0
193 193 0
196 193 0
198 193 0
201 193 0
203 193 0
205 193 0
208 193 0
210 193 0
212 193 0
215 193 0
217 193 0
219 193 0
221 193 0
223 193 0
225 193 0
227 193 0
229 193 0
232 193 0
234 193 0
236 193 0
238 193 0
239 193 0
241 193 0
243 193 0
245 193 0
247 193 0
249 193 0
251 193 0
253 193 0
0 191 0
38 191 0
52 191 0
63 191 0
72 191 0
80 191 0
86 191 0
93 191 0
99 191 0
104 191 0
109 191 0
114 191 0
119 191 0
123 191 0
127 191 0
131 191 0
135 191 0
139 191 0
143 191 0
146 191 0
150 191 0
153 191 0
156 191 0
160 191 0
163 191 0
166 191 0
169 191 0
172 191 0
175 191 0
177 191 0
180 191 0
183 191 0
186 191 0
188 191 0
191 191 0
193 191 0
196 191 0
198 191 0
201 191 0
203 191 0
205 191 0
208 191 0
210 191 0
212 191 0
215 191 0
217 191 0
219 191 0
221 191 0
223 191 0
225 191 0
227 191 0
229 191 0
232 191 0
234 191 0
236 191 0
238 191 0
239 191 0
241 191 0
243 191 0
245 191 0
247 191 0
249 191 0
251 191 0
253 191 0
0 188 0
38 188 0
52 188 0
63 188 0
72 188 0
80 188 0
86 188 0
93 188 0
99 188 0
104 188 0
109 188 0
114 188 0
119 188 0
123 188 0
127 188 0
131 188 0
135 188 0
139 188 0
143 188 0
146 188 0
150 188 0
153 188 0
156 188 0
160 188 0
163 188 0
166 188 0
169 188 0
172 188 0
175 188 0
177 188 0
180 188 0
183 188 0
186 188 0
188 188 0
191 188 0
193 188 0
196 188 0
198 188 0
201 188 0
203 188 0
205 188 0
208 188 0
210 188 0
212 188 0
215 188 0
217 188 0
219 188 0
221 188 0
223 188 0
225 188 0
227 188 0
229 188 0
232 188 0
234 188 0
236 188 0
238 188 0
239 188 0
241 188 0
243 188 0
245 188 0
247 188 0
249 188 0
251 188 0
253 188 0
0 186 0
38 186 0
52 186 0
63 186 0
72 186 0
80 186 0
86 186 0
93 186 0
99 186 0
104 186 0
109 186 0
114 186 0
119 186 0
123 186 0
127 186 0
131 186 0
135 186 0
139 186 0
143 186 0
146 186 0
150 186 0
153 186 0
156 186 0
160 186 0
163 186 0
166 186 0
169 186 0
172 186 0
175 186 0
177 186 0
180 186 0
183 186 0
186 186 0
188 186 0
191 186 0
193 186 0
196 186 0
198 186 0
201 186 0
203 186 0
205 186 0
208 186 0
210 186 0
212 186 0
215 186 0
217 186 0
219 186 0
221 186 0
223 186 0
225 186 0
227 186 0
229 186 0
232 186 0
234 186 0
236 186 0
238 186 0
239 186 0
241 186 0
243 186 0
245 186 0
247 186 0
249 186 0
251 186 0
253 186 0
0 183 0
38 183 0
52 183 0
63 183 0
72 183 0
80 183 0
86 183 0
93 183 0
99 183 0
104 183 0
109 183 0
114 183 0
119 183 0
123 183 0
127 183 0
131 183 0
135 183 0
139 183 0
143 183 0
146 183 0
150 183 0
153 183 0
156 183 0
160 183 0
163 183 0
166 183 0
169 183 0
172 183 0
175 183 0
177 183 0
180 183 0
183 183 0
186 183 0
188 183 0
191 183 0
193 183 0
196 183 0
198 183 0
201 183 0
203 183 0
205 183 0
208 183 0
210 183 0
212 183 0
215 183 0
217 183 0
219 183 0
221 183 0
223 183 0
225 183 0
227 183 0
229 183 0
232 183 0
234 183 0
236 183 0
238 183 0
239 183 0
241 183 0
243 183 0
245 183 0
247 183 0
249 183 0
251 183 0
253 183 0
0 180 0
38 180 0
52 180 0
63 180 0
72 180 0
80 180 0
86 180 0
93 180 0
99 180 0
104 180 0
109 180 0
114 180 0
119 180 0
123 180 0
127 180 0
131 180 0
135 180 0
139 180 0
143 180 0
146 180 0
150 180 0
153 180 0
156 180 0
160 180 0
163 180 0
166 180 0
169 180 0
172 180 0
175 180 0
177 180 0
180 180 0
183 180 0
186 180 0
188 180 0
191 180 0
193 180 0
196 180 0
198 180 0
201 180 0
203 180 0
205 180 0
208 180 0
210 180 0
212 180 0
215 180 0
217 180 0
219 180 0
221 180 0
223 180 0
225 180 0
227 180 0
229 180 0
232 180 0
234 180 0
236 180 0
238 180 0
239 180 0
241 180 0
243 180 0
245 180 0
247 180 0
249 180 0
251 180 0
253 180 0
0 177 0
38 177 0
52 177 0
63 177 0
72 177 0
80 177 0
86 177 0
93 177 0
99 177 0
104 177 0
109 177 0
114 177 0
119 177 0
123 177 0
127 177 0
131 177 0
135 177 0
139 177 0
143 177 0
146 177 0
150 177 0
153 177 0
156 177 0
160 177 0
163 177 0
166 177 0
169 177 0
172 177 0
175 177 0
177 177 0
180 177 0
183 177 0
186 177 0
188 177 0
191 177 0
193 177 0
196 177 0
198 177 0
201 177 0
203 177 0
205 177 0
208 177 0
210 177 0
212 177 0
215 177 0
217 177 0
219 177 0
221 177 0
223 177 0
225 177 0
227 177 0
229 177 0
232 177 0
234 177 0
236 177 0
238 177 0
239 177 0
241 177 0
243 177 0
245 177 0
247 177 0
249 177 0
251 177 0
253 177 0
0 175 0
38 175 0
52 175 0
63 175 0
72 175 0
80 175 0
86 175 0
93 175 0
99 175 0
104 175 0
109 175 0
114 175 0
119 175 0
123 175 0
127 175 0
131 175 0
135 175 0
139 175 0
143 175 0
146 175 0
150 175 0
153 175 0
156 175 0
160 175 0
163 175 0
166 175 0
169 175 0
172 175 0
175 175 0
177 175 0
180 175 0
183 175 0
186 175 0
188 175 0
191 175 0
193 175 0
196 175 0
198 175 0
201 175 0
203 175 0
205 175 0
208 175 0
210 175 0
212 175 0
215 175 0
217 175 0
219 175 0
221 175 0
223 175 0
225 175 0
227 175 0
229 175 0
232 175 0
234 175 0
236 175 0
238 175 0
239 175 0
241 175 0
243 175 0
245 175 0
247 175 0
249 175 0
251 175 0
253 175 0
0 172 0
38 172 0
52 172 0
63 172 0
72 172 0
80 172 0
86 172 0
93 172 0
99 172 0
104 172 0
109 172 0
114 172 0
119 172 0
123 172 0
127 172 0
131 172 0
135 172 0
139 172 0
143 172 0
146 172 0
150 172 0
153 172 0
156 172 0
160 172 0
163 172 0
166 172 0
169 172 0
172 172 0
175 172 0
177 172 0
180 172 0
183 172 0
186 172 0
188 172 0
191 172 0
193 172 0
196 172 0
198 172 0
201 172 0
203 172 0
205 172 0
208 172 0
210 172 0
212 172 0
215 172 0
217 172 0
219 172 0
221 172 0
223 172 0
225 172 0
227 172 0
229 172 0
232 172 0
234 172 0
236 172 0
238 172 0
239 172 0
241 172 0
243 172 0
245 172 0
247 172 0
249 172 0
251 172 0
253 172 0
0 169 0
38 169 0
52 169 0
63 169 0
72 169 0
80 169 0
86 169 0
93 169 0
99 169 0
104 169 0
109 169 0
114 169 0
119 169 0
123 169 0
127 169 0
131 169 0
135 169 0
139 169 0
143 169 0
146 169 0
150 169 0
153 169 0
156 169 0
160 169 0
163 169 0
166 169 0
169 169 0
172 169 0
175 169 0
177 169 0
180 169 0
183 169 0
186 169 0
188 169 0
191 169 0
193 169 0
196 169 0
198 169 0
201 169 0
203 169 0
205 169 0
208 169 0
210 169 0
212 169 0
215 169 0
217 169 0
219 169 0
221 169 0
223 169 0
225 169 0
227 169 0
229 169 0
232 169 0
234 169 0
236 169 0
238 169 0
239 169 0
241 169 0
243 169 0
245 169 0
247 169 0
249 169 0
251 169 0
253 169 0
0 166 0
38 166 0
52 166 0
63 166 0
72 166 0
80 166 0
86 166 0
93 166 0
99 166 0
104 166 0
109 166 0
114 166 0
119 166 0
123 166 0
127 166 0
131 166 0
135 166 0
139 166 0
143 166 0
146 166 0
150 166 0
153 166 0
156 166 0
160 166 0
163 166 0
166 166 0
169 166 0
172 166 0
175 166 0
177 166 0
180 166 0
183 166 0
186 166 0
188 166 0
191 166 0
193 166 0
196 166 0
198 166 0
201 166 0
203 166 0
205 166 0
208 166 0
210 166 0
212 166 0
215 166 0
217 166 0
219 166 0
221 166 0
223 166 0
225 166 0
227 166 0
229 166 0
232 166 0
234 166 0
236 166 0
238 166 0
239 166 0
241 166 0
243 166 0
245 166 0
247 166 0
249 166 0
251 166 0
253 166 0
0 163 0
38 163 0
52 163 0
63 163 0
72 163 0
80 163 0
86 163 0
93 163 0
99 163 0
104 163 0
109 163 0
114 163 0
119 163 0
123 163 0
127 163 0
131 163 0
135 163 0
139 163 0
143 163 0
146 163 0
150 163 0
153 163 0
156 163 0
160 163 0
163 163 0
166 163 0
169 163 0
172 163 0
175 163 0
177 163 0
180 163 0
183 163 0
186 163 0
188 163 0
191 163 0
193 163 0
196 163 0
198 163 0
201 163 0
203 163 0
205 163 0
208 163 0
210 163 0
212 163 0
215 163 0
217 163 0
219 163 0
221 163 0
223 163 0
225 163 0
227 163 0
229 163 0
232 163 0
234 163 0
236 163 0
238 163 0
239 163 0
241 163 0
243 163 0
245 163 0
247 163 0
249 163 0
251 163 0
253 163 0
0 160 0
38 160 0
52 160 0
63 160 0
72 160 0
80 160 0
86 160 0
93 160 0
99 160 0
104 160 0
109 160 0
114 160 0
119 160 0
123 160 0
127 160 0
131 160 0
135 160 0
139 160 0
143 160 0
146 160 0
150 160 0
153 160 0
156 160 0
160 160 0
163 160 0
166 160 0
169 160 0
172 160 0
175 160 0
177 160 0
180 160 0
183 160 0
186 160 0
188 160 0
191 160 0
193 160 0
196 160 0
198 160 0
201 160 0
203 160 0
205 160 0
208 160 0
210 160 0
212 160 0
215 160 0
217 160 0
219 160 0
221 160 0
223 160 0
225 160 0
227 160 0
229 160 0
232 160 0
234 160 0
236 160 0
238 160 0
239 160 0
241 160 0
243 160 0
245 160 0
247 160 0
249 160 0
251 160 0
253 160 0
0 156 0
38 156 0
52 156 0
63 156 0
72 156 0
80 156 0
86 156 0
93 156 0
99 156 0
104 156 0
109 156 0
114 156 0
119 156 0
123 156 0
127 156 0
131 156 0
135 156 0
139 156 0
143 156 0
146 156 0
150 156 0
153 156 0
156 156 0
160 156 0
163 156 0
166 156 0
169 156 0
172 156 0
175 156 0
177 156 0
180 156 0
183 156 0
186 156 0
188 156 0
191 156 0
193 156 0
196 156 0
198 156 0
201 156 0
203 156 0
205 156 0
208 156 0
210 156 0
212 156 0
215 156 0
217 156 0
219 156 0
221 156 0
223 156 0
225 156 0
227 156 0
229 156 0
232 156 0
234 156 0
236 156 0
238 156 0
239 156 0
241 156 0
243 156 0
245 156 0
247 156 0
249 156 0
251 156 0
253 156 0
0 153 0
38 153 0
52 153 0
63 153 0
72 153 0
80 153 0
86 153 0
93 153 0
99 153 0
104 153 0
109 153 0
114 153 0
119 153 0
123 153 0
127 153 0
131 153 0
135 153 0
139 153 0
143 153 0
146 153 0
150 153 0
153 153 0
156 153 0
160 153 0
163 153 0
166 153 0
169 153 0
172 153 0
175 153 0
177 153 0
180 153 0
183 153 0
186 153 0
188 153 0
191 153 0
193 153 0
196 153 0
198 153 0
201 153 0
203 153 0
205 153 0
208 153 0
210 153 0
212 153 0
215 153 0
217 153 0
219 153 0
221 153 0
223 153 0
225 153 0
227 153 0
229 153 0
232 153 0
234 153 0
236 153 0
238 153 0
239 153 0
241 153 0
243 153 0
245 153 0
247 153 0
249 153 0
251 153 0
253 153 0
0 150 0
38 150 0
52 150 0
63 150 0
72 150 0
80 150 0
86 150 0
93 150 0
99 150 0
104 150 0
109 150 0
114 150 0
119 150 0
123 150 0
127 150 0
131 150 0
135 150 0
139 150 0
143 150 0
146 150 0
150 150 0
153 150 0
156 150 0
160 150 0
163 150 0
166 150 0
169 150 0
172 150 0
175 150 0
177 150 0
180 150 0
183 150 0
186 150 0
188 150 0
191 150 0
193 150 0
196 150 0
198 150 0
201 150 0
203 150 0
205 150 0
208 150 0
210 150 0
212 150 0
215 150 0
217 150 0
219 150 0
221 150 0
223 150 0
225 150 0
227 150 0
229 150 0
232 150 0
234 150 0
236 150 0
238 150 0
239 150 0
241 150 0
243 150 0
245 150 0
247 150 0
249 150 0
251 150 0
253 150 0
0 146 0
38 146 0
52 146 0
63 146 0
72 146 0
80 146 0
86 146 0
93 146 0
99 146 0
104 146 0
109 146 0
114 146 0
119 146 0
123 146 0
127 146 0
131 146 0
135 146 0
139 146 0
143 146 0
146 146 0
150 146 0
153 146 0
156 146 0
160 146 0
163 146 0
166 146 0
169 146 0
172 146 0
175 146 0
177 146 0
180 146 0
183 146 0
186 146 0
188 146 0
191 146 0
193 146 0
196 146 0
198 146 0
201 146 0
203 146 0
205 146 0
208 146 0
210 146 0
212 146 0
215 146 0
217 146 0
219 146 0
221 146 0
223 146 0
225 146 0
227 146 0
229 146 0
232 146 0
234 146 0
236 146 0
238 146 0
239 146 0
241 146 0
243 146 0
245 146 0
247 146 0
249 146 0
251 146 0
253 146 0
0 143 0
38 143 0
52 143 0
63 143 0
72 143 0
80 143 0
86 143 0
93 143 0
99 143 0
104 143 0
109 143 0
114 143 0
119 143 0
123 143 0
127 143 0
131 143 0
135 143 0
139 143 0
143 143 0
146 143 0
150 143 0
153 143 0
156 143 0
160 143 0
163 143 0
166 143 0
169 143 0
172 143 0
175 143 0
177 143 0
180 143 0
183 143 0
186 143 0
188 143 0
191 143 0
193 143 0
196 143 0
198 143 0
201 143 0
203 143 0
205 143 0
208 143 0
210 143 0
212 143 0
215 143 0
217 143 0
219 143 0
221 143 0
223 143 0
225 143 0
227 143 0
229 143 0
232 143 0
234 143 0
236 143 0
238 143 0
239 143 0
241 143 0
243 143 0
245 143 0
247 143 0
249 143 0
251 143 0
253 143 0
0 139 0
38 139 0
52 139 0
63 139 0
72 139 0
80 139 0
86 139 0
93 139 0
99 139 0
104 139 0
109 139 0
114 139 0
119 139 0
123 139 0
127 139 0
131 139 0
135 139 0
139 139 0
143 139 0
146 139 0
150 139 0
153 139 0
156 139 0
160 139 0
163 139 0
166 139 0
169 139 0
172 139 0
175 139 0
177 139 0
180 139 0
183 139 0
186 139 0
188 139 0
191 139 0
193 139 0
196 139 0
198 139 0
201 139 0
203 139 0
205 139 0
208 139 0
210 139 0
212 139 0
215 139 0
217 139 0
219 139 0
221 139 0
223 139 0
225 139 0
227 139 0
229 139 0
232 139 0
234 139 0
236 139 0
238 139 0
239 139 0
241 139 0
243 139 0
245 139 0
247 139 0
249 139 0
251 139 0
253 139 0
0 135 0
38 135 0
52 135 0
63 135 0
72 135 0
80 135 0
86 135 0
93 135 0
99 135 0
104 135 0
109 135 0
114 135 0
119 135 0
123 135 0
127 135 0
131 135 0
135 135 0
139 135 0
143 135 0
146 135 0
150 135 0
153 135 0
156 135 0
160 135 0
163 135 0
166 135 0
169 135 0
172 135 0
175 135 0
177 135 0
180 135 0
183 135 0
186 135 0
188 135 0
191 135 0
193 135 0
196 135 0
198 135 0
201 135 0
203 135 0
205 135 0
208 135 0
210 135 0
212 135 0
215 135 0
217 135 0
219 135 0
221 135 0
223 135 0
225 135 0
227 135 0
229 135 0
232 135 0
234 135 0
236 135 0
238 135 0
239 135 0
241 135 0
243 135 0
245 135 0
247 135 0
249 135 0
251 135 0
253 135 0
0 131 0
38 131 0
52 131 0
63 131 0
72 131 0
80 131 0
86 131 0
93 131 0
99 131 0
104 131 0
109 131 0
114 131 0
119 131 0
123 131 0
127 131 0
131 131 0
135 131 0
139 131 0
143 131 0
146 131 0
150 131 0
153 131 0
156 131 0
160 131 0
163 131 0
166 131 0
169 131 0
172 131 0
175 131 0
177 131 0
180 131 0
183 131 0
186 131 0
188 131 0
191 131 0
193 131 0
196 131 0
198 131 0
201 131 0
203 131 0
205 131 0
208 131 0
210 131 0
212 131 0
215 131 0
217 131 0
219 131 0
221 131 0
223 131 0
225 131 0
227 131 0
229 131 0
232 131 0
234 131 0
236 131 0
238 131 0
239 131 0
241 131 0
243 131 0
245 131 0
247 131 0
249 131 0
251 131 0
253 131 0
0 127 0
38 127 0
52 127 0
63 127 0
72 127 0
80 127 0
86 127 0
93 127 0
99 127 0
104 127 0
109 127 0
114 127 0
119 127 0
123 127 0
127 127 0
131 127 0
135 127 0
139 127 0
143 127 0
146 127 0
150 127 0
153 127 0
156 127 0
160 127 0
163 127 0
166 127 0
169 127 0
172 127 0
175 127 0
177 127 0
180 127 0
183 127 0
186 127 0
188 127 0
191 127 0
193 127 0
196 127 0
198 127 0
201 127 0
203 127 0
205 127 0
208 127 0
210 127 0
212 127 0
215 127 0
217 127 0
219 127 0
221 127 0
223 127 0
225 127 0
227 127 0
229 127 0
232 127 0
234 127 0
236 127 0
238 127 0
239 127 0
241 127 0
243 127 0
245 127 0
247 127 0
249 127 0
251 127 0
253 127 0
0 123 0
38 123 0
52 123 0
63 123 0
72 123 0
80 123 0
86 123 0
93 123 0
99 123 0
104 123 0
109 123 0
114 123 0
119 123 0
123 123 0
127 123 0
131 123 0
135 123 0
139 123 0
143 123 0
146 123 0
150 123 0
153 123 0
156 123 0
160 123 0
163 123 0
166 123 0
169 123 0
172 123 0
175 123 0
177 123 0
180 123 0
183 123 0
186 123 0
188 123 0
191 123 0
193 123 0
196 123 0
198 123 0
201 123 0
203 123 0
205 123 0
208 123 0
210 123 0
212 123 0
215 123 0
217 123 0
219 123 0
221 123 0
223 123 0
225 123 0
227 123 0
229 123 0
232 123 0
234 123 0
236 123 0
238 123 0
239 123 0
241 123 0
243 123 0
245 123 0
247 123 0
249 123 0
251 123 0
253 123 0
0 119 0
38 119 0
52 119 0
63 119 0
72 119 0
80 119 0
86 119 0
93 119 0
99 119 0
104 119 0
109 119 0
114 119 0
119 119 0
123 119 0
127 119 0
131 119 0
135 119 0
139 119 0
143 119 0
146 119 0
150 119 0
153 119 0
156 119 0
160 119 0
163 119 0
166 119 0
169 119 0
172 119 0
175 119 0
177 119 0
180 119 0
183 119 0
186 119 0
188 119 0
191 119 0
193 119 0
196 119 0
198 119 0
201 119 0
203 119 0
205 119 0
208 119 0
210 119 0
212 119 0
215 119 0
217 119 0
219 119 0
221 119 0
223 119 0
225 119 0
227 119 0
229 119 0
232 119 0
234 119 0
236 119 0
238 119 0
239 119 0
241 119 0
243 119 0
245 119 0
247 119 0
249 119 0
251 119 0
253 119 0
0 114 0
38 114 0
52 114 0
63 114 0
72 114 0
80 114 0
86 114 0
93 114 0
99 114 0
104 114 0
109 114 0
114 114 0
119 114 0
123 114 0
127 114 0
131 114 0
135 114 0
139 114 0
143 114 0
146 114 0
150 114 0
153 114 0
156 114 0
160 114 0
163 114 0
166 114 0
169 114 0
172 114 0
175 114 0
177 114 0
180 114 0
183 114 0
186 114 0
188 114 0
191 114 0
193 114 0
196 114 0
198 114 0
201 114 0
203 114 0
205 114 0
208 114 0
210 114 0
212 114 0
215 114 0
217 114 0
219 114 0
221 114 0
223 114 0
225 114 0
227 114 0
229 114 0
232 114 0
234 114 0
236 114 0
238 114 0
239 114 0
241 114 0
243 114 0
245 114 0
247 114 0
249 114 0
251 114 0
253 114 0
0 109 0
38 109 0
52 109 0
63 109 0
72 109 0
80 109 0
86 109 0
93 109 0
99 109 0
104 109 0
109 109 0
114 109 0
119 109 0
123 109 0
127 109 0
131 109 0
135 109 0
139 109 0
143 109 0
146 109 0
150 109 0
153 109 0
156 109 0
160 109 0
163 109 0
166 109 0
169 109 0
172 109 0
175 109 0
177 109 0
180 109 0
183 109 0
186 109 0
188 109 0
191 109 0
193 109 0
196 109 0
198 109 0
201 109 0
203 109 0
205 109 0
208 109 0
210 109 0
212 109 0
215 109 0
217 109 0
219 109 0
221 109 0
223 109 0
225 109 0
227 109 0
229 109 0
232 109 0
234 109 0
236 109 0
238 109 0
239 109 0
241 109 0
243 109 0
245 109 0
247 109 0
249 109 0
251 109 0
253 109 0
0 104 0
38 104 0
52 104 0
63 104 0
72 104 0
80 104 0
86 104 0
93 104 0
99 104 0
104 104 0
109 104 0
114 104 0
119 104 0
123 104 0
127 104 0
131 104 0
135 104 0
139 104 0
143 104 0
146 104 0
150 104 0
153 104 0
156 104 0
160 104 0
163 104 0
166 104 0
169 104 0
172 104 0
175 104 0
177 104 0
180 104 0
183 104 0
186 104 0
188 104 0
191 104 0
193 104 0
196 104 0
198 104 0
201 104 0
203 104 0
205 104 0
208 104 0
210 104 0
212 104 0
215 104 0
217 104 0
219 104 0
221 104 0
223 104 0
225 104 0
227 104 0
229 104 0
232 104 0
234 104 0
236 104 0
238 104 0
239 104 0
241 104 0
243 104 0
245 104 0
247 104 0
249 104 0
251 104 0
253 104 0
0 99 0
38 99 0
52 99 0
63 99 0
72 99 0
80 99 0
86 99 0
93 99 0
99 99 0
104 99 0
109 99 0
114 99 0
119 99 0
123 99 0
127 99 0
131 99 0
135 99 0
139 99 0
143 99 0
146 99 0
150 99 0
153 99 0
156 99 0
160 99 0
163 99 0
166 99 0
169 99 0
172 99 0
175 99 0
177 99 0
180 99 0
183 99 0
186 99 0
188 99 0
191 99 0
193 99 0
196 99 0
198 99 0
201 99 0
203 99 0
205 99 0
208 99 0
210 99 0
212 99 0
215 99 0
217 99 0
219 99 0
221 99 0
223 99 0
225 99 0
227 99 0
229 99 0
232 99 0
234 99 0
236 99 0
238 99 0
239 99 0
241 99 0
243 99 0
245 99 0
247 99 0
249 99 0
251 99 0
253 99 0
0 93 0
38 93 0
52 93 0
63 93 0
72 93 0
80 93 0
86 93 0
93 93 0
99 93 0
104 93 0
109 93 0
114 93 0
119 93 0
123 93 0
127 93 0
131 93 0
135 93 0
139 93 0
143 93 0
146 93 0
150 93 0
153 93 0
156 93 0
160 93 0
163 93 0
166 93 0
169 93 0
172 93 0
175 93 0
177 93 0
180 93 0
183 93 0
186 93 0
188 93 0
191 93 0
193 93 0
196 93 0
198 93 0
201 93 0
203 93 0
205 93 0
208 93 0
210 93 0
212 93 0
215 93 0
217 93 0
219 93 0
221 93 0
223 93 0
225 93 0
227 93 0
229 93 0
232 93 0
234 93 0
236 93 0
238 93 0
239 93 0
241 93 0
243 93 0
245 93 0
247 93 0
249 93 0
251 93 0
253 93 0
0 86 0
38 86 0
52 86 0
63 86 0
72 86 0
80 86 0
86 86 0
93 86 0
99 86 0
104 86 0
109 86 0
114 86 0
119 86 0
123 86 0
127 86 0
131 86 0
135 86 0
139 86 0
143 86 0
146 86 0
150 86 0
153 86 0
156 86 0
160 86 0
163 86 0
166 86 0
169 86 0
172 86 0
175 86 0
177 86 0
180 86 0
183 86 0
186 86 0
188 86 0
191 86 0
193 86 0
196 86 0
198 86 0
201 86 0
203 86 0
205 86 0
208 86 0
210 86 0
212 86 0
215 86 0
217 86 0
219 86 0
221 86 0
223 86 0
225 86 0
227 86 0
229 86 0
232 86 0
234 86 0
236 86 0
238 86 0
239 86 0
241 86 0
243 86 0
245 86 0
247 86 0
249 86 0
251 86 0
253 86 0
0 80 0
38 80 0
52 80 0
63 80 0
72 80 0
80 80 0
86 80 0
93 80 0
99 80 0
104 80 0
109 80 0
114 80 0
119 80 0
123 80 0
127 80 0
131 80 0
135 80 0
139 80 0
143 80 0
146 80 0
150 80 0
153 80 0
156 80 0
160 80 0
163 80 0
166 80 0
169 80 0
172 80 0
175 80 0
177 80 0
180 80 0
183 80 0
186 80 0
188 80 0
191 80 0
193 80 0
196 80 0
198 80 0
201 80 0
203 80 0
205 80 0
208 80 0
210 80 0
212 80 0
215 80 0
217 80 0
219 80 0
221 80 0
223 80 0
225 80 0
227 80 0
229 80 0
232 80 0
234 80 0
236 80 0
238 80 0
239 80 0
241 80 0
243 80 0
245 80 0
247 80 0
249 80 0
251 80 0
253 80 0
0 72 0
38 72 0
52 72 0
63 72 0
72 72 0
80 72 0
86 72 0
93 72 0
99 72 0
104 72 0
109 72 0
114 72 0
119 72 0
123 72 0
127 72 0
131 72 0
135 72 0
139 72 0
143 72 0
146 72 0
150 72 0
153 72 0
156 72 0
160 72 0
163 72 0
166 72 0
169 72 0
172 72 0
175 72 0
177 72 0
180 72 0
183 72 0
186 72 0
188 72 0
191 72 0
193 72 0
196 72 0
198 72 0
201 72 0
203 72 0
205 72 0
208 72 0
210 72 0
212 72 0
215 72 0
217 72 0
219 72 0
221 72 0
223 72 0
225 72 0
227 72 0
229 72 0
232 72 0
234 72 0
236 72 0
238 72 0
239 72 0
241 72 0
243 72 0
245 72 0
247 72 0
249 72 0
251 72 0
253 72 0
0 63 0
38 63 0
52 63 0
63 63 0
72 63 0
80 63 0
86 63 0
93 63 0
99 63 0
104 63 0
109 63 0
114 63 0
119 63 0
123 63 0
127 63 0
131 63 0
135 63 0
139 63 0
143 63 0
146 63 0
150 63 0
153 63 0
156 63 0
160 63 0
163 63 0
166 63 0
169 63 0
172 63 0
175 63 0
177 63 0
180 63 0
183 63 0
186 63 0
188 63 0
191 63 0
193 63 0
196 63 0
198 63 0
201 63 0
203 63 0
205 63 0
208 63 0
210 63 0
212 63 0
215 63 0
217 63 0
219 63 0
221 63 0
223 63 0
225 63 0
227 63 0
229 63 0
232 63 0
234 63 0
236 63 0
238 63 0
239 63 0
241 63 0
243 63 0
245 63 0
247 63 0
249 63 0
251 63 0
253 63 0
0 52 0
38 52 0
52 52 0
63 52 0
72 52 0
80 52 0
86 52 0
93 52 0
99 52 0
104 52 0
109 52 0
114 52 0
119 52 0
123 52 0
127 52 0
131 52 0
135 52 0
139 52 0
143 52 0
146 52 0
150 52 0
153 52 0
156 52 0
160 52 0
163 52 0
166 52 0
169 52 0
172 52 0
175 52 0
177 52 0
180 52 0
183 52 0
186 52 0
188 52 0
191 52 0
193 52 0
196 52 0
198 52 0
201 52 0
203 52 0
205 52 0
208 52 0
210 52 0
212 52 0
215 52 0
217 52 0
219 52 0
221 52 0
223 52 0
225 52 0
227 52 0
229 52 0
232 52 0
234 52 0
236 52 0
238 52 0
239 52 0
241 52 0
243 52 0
245 52 0
247 52 0
249 52 0
251 52 0
253 52 0
0 38 0
38 38 0
52 38 0
63 38 0
72 38 0
80 38 0
86 38 0
93 38 0
99 38 0
104 38 0
109 38 0
114 38 0
119 38 0
123 38 0
127 38 0
131 38 0
135 38 0
139 38 0
143 38 0
146 38 0
150 38 0
153 38 0
156 38 0
160 38 0
163 38 0
166 38 0
169 38 0
172 38 0
175 38 0
177 38 0
180 38 0
183 38 0
186 38 0
188 38 0
191 38 0
193 38 0
196 38 0
198 38 0
201 38 0
203 38 0
205 38 0
208 38 0
210 38 0
212 38 0
215 38 0
217 38 0
219 38 0
221 38 0
223 38 0
225 38 0
227 38 0
229 38 0
232 38 0
234 38 0
236 38 0
238 38 0
239 38 0
241 38 0
243 38 0
245 38 0
247 38 0
249 38 0
251 38 0
253 38 0
0 0 0
38 0 0
52 0 0
63 0 0
72 0 0
80 0 0
86 0 0
93 0 0
99 0 0
104 0 0
109 0 0
114 0 0
119 0 0
123 0 0
127 0 0
131 0 0
135 0 0
139 0 0
143 0 0
146 0 0
150 0 0
153 0 0
156 0 0
160 0 0
163 0 0
166 0 0
169 0 0
172 0 0
175 0 0
177 0 0
180 0 0
183 0 0
186 0 0
188 0 0
191 0 0
193 0 0
196 0 0
198 0 0
201 0 0
203 0 0
205 0 0
208 0 0
210 0 0
212 0 0
215 0 0
217 0 0
219 0 0
221 0 0
223 0 0
225 0 0
227 0 0
229 0 0
232 0 0
234 0 0
236 0 0
238 0 0
239 0 0
241 0 0
243 0 0
245 0 0
247 0 0
249 0 0
251 0 0
253 0 0
