P3 64 64 255
186 254 186
186 254 186
186 254 186
186 254 186
186 254 186
186 254 186
186 254 186
186 254 186
186 254 186
186 254 186
186 254 186
186 254 186
186 254 186
186 254 186
186 254 186
186 254 186
186 254 186
186 254 186
186 254 186
186 254 186
186 254 186
186 254 186
186 254 186
186 254 186
186 254 186
186 254 186
186 254 186
186 254 186
186 254 186
186 254 186
186 254 186
186 254 186
186 254 186
186 254 186
186 254 186
186 254 186
186 254 186
186 254 186
186 254 186
186 254 186
186 254 186
186 254 186
186 254 186
186 254 186
186 254 186
186 254 186
186 254 186
186 254 186
186 254 186
186 254 186
186 254 186
186 254 186
186 254 186
186 254 186
186 254 186
186 254 186
186 254 186
186 254 186
186 254 186
186 254 186
186 254 186
186 254 186
186 254 186
186 254 186
186 254 186
186 254 186
186 254 186
186 254 186
186 254 186
186 254 186
186 254 186
186 254 186
186 254 186
186 254 186
186 254 186
186 254 186
186 254 186
186 254 186
186 254 186
186 254 186
186 254 186
186 254 186
186 254 186
186 254 186
186 254 186
186 254 186
186 254 186
186 254 186
186 254 186
186 254 186
186 254 186
186 254 186
186 254 186
186 254 186
186 254 186
186 254 186
186 254 186
186 254 186
186 254 186
186 254 186
186 254 186
186 254 186
186 254 186
186 254 186
186 254 186
186 254 186
186 254 186
186 254 186
186 254 186
186 254 186
186 254 186
186 254 186
186 254 186
186 254 186
186 254 186
186 254 186
186 254 186
186 254 186
186 254 186
186 254 186
186 254 186
186 254 186
186 254 186
186 254 186
186 254 186
186 254 186
186 254 186
186 254 186
186 254 186
186 254 186
186 254 186
186 254 186
186 254 186
186 254 186
186 254 186
186 254 186
186 254 186
186 254 186
186 254 186
186 254 186
186 254 186
186 254 186
186 254 186
186 254 186
186 254 186
186 254 186
186 254 186
186 254 186
186 254 186
186 254 186
186 254 186
186 254 186
186 254 186
186 254 186
186 254 186
186 254 186
186 254 186
186 254 186
186 254 186
186 254 186
186 254 186
186 254 186
186 254 186
186 254 186
186 254 186
186 254 186
186 254 186
186 254 186
186 254 186
186 254 186
186 254 186
186 254 186
186 254 186
186 254 186
186 254 186
186 254 186
186 254 186
186 254 186
186 254 186
186 254 186
186 254 186
186 254 186
186 254 186
186 254 186
186 254 186
186 254 186
186 254 186
186 254 186
186 254 186
186 254 186
186 254 186
186 254 186
186 254 186
186 254 186
186 254 186
186 254 186
186 254 186
186 254 186
186 254 186
186 254 186
186 254 186
186 254 186
186 254 186
186 254 186
186 254 186
186 254 186
186 254 186
186 254 186
186 254 186
186 254 186
186 254 186
186 254 186
186 254 186
186 254 186
186 254 186
186 254 186
186 254 186
186 254 186
186 254 186
186 254 186
186 254 186
186 254 186
186 254 186
186 254 186
186 254 186
186 254 186
186 254 186
186 254 186
186 254 186
186 254 186
186 254 186
186 254 186
186 254 186
186 254 186
186 254 186
186 254 186
186 254 186
186 254 186
186 254 186
186 254 186
186 254 186
186 254 186
186 254 186
186 254 186
186 254 186
186 254 186
186 254 186
186 254 186
186 254 186
186 254 186
186 254 186
186 254 186
186 254 186
186 254 186
186 254 186
186 254 186
186 254 186
186 254 186
186 254 186
186 254 186
186 254 186
186 254 186
186 254 186
186 254 186
186 254 186
186 254 186
186 254 186
186 254 186
186 254 186
186 254 186
186 254 186
186 254 186
186 254 186
186 254 186
186 254 186
186 254 186
186 254 186
186 254 186
186 254 186
186 254 186
186 254 186
186 254 186
186 254 186
186 254 186
186 254 186
186 254 186
186 254 186
186 254 186
186 254 186
186 254 186
186 254 186
186 254 186
186 254 186
186 254 186
186 254 186
186 254 186
186 254 186
186 254 186
186 254 186
186 254 186
186 254 186
186 254 186
186 254 186
186 254 186
186 254 186
186 254 186
186 254 186
186 254 186
186 254 186
186 254 186
186 254 186
186 254 186
186 254 186
186 254 186
186 254 186
186 254 186
186 254 186
186 254 186
186 254 186
186 254 186
186 254 186
186 254 186
186 254 186
186 254 186
186 254 186
186 254 186
186 254 186
186 254 186
186 254 186
186 254 186
186 254 186
186 254 186
186 254 186
186 254 186
186 254 186
186 254 186
186 254 186
186 254 186
186 254 186
186 254 186
186 254 186
186 254 186
186 254 186
186 254 186
186 254 186
186 254 186
186 254 186
186 254 186
186 254 186
186 254 186
186 254 186
186 254 186
186 254 186
186 254 186
186 254 186
186 254 186
186 254 186
186 254 186
186 254 186
186 254 186
186 254 186
186 254 186
186 254 186
186 254 186
186 254 186
186 254 186
186 254 186
186 254 186
186 254 186
186 254 186
186 254 186
186 254 186
186 254 186
186 254 186
186 254 186
186 254 186
186 254 186
186 254 186
186 254 186
186 254 186
186 254 186
186 254 186
186 254 186
186 254 186
186 254 186
186 254 186
186 254 186
186 254 186
186 254 186
186 254 186
186 254 186
186 254 186
186 254 186
186 254 186
186 254 186
186 254 186
186 254 186
186 254 186
186 254 186
186 254 186
186 254 186
186 254 186
186 254 186
186 254 186
186 254 186
186 254 186
186 254 186
186 254 186
186 254 186
186 254 186
186 254 186
186 254 186
186 254 186
186 254 186
186 254 186
186 254 186
186 254 186
186 254 186
186 254 186
186 254 186
186 254 186
186 254 186
186 254 186
186 254 186
186 254 186
186 254 186
186 254 186
186 254 186
186 254 186
186 254 186
186 254 186
186 254 186
186 254 186
186 254 186
186 254 186
186 254 186
186 254 186
186 254 186
186 254 186
186 254 186
186 254 186
186 254 186
186 254 186
186 254 186
186 254 186
186 254 186
186 254 186
186 254 186
0 186 186
0 186 186
186 254 186
186 254 186
186 254 186
186 254 186
186 254 186
186 254 186
186 254 186
186 254 186
186 254 186
186 254 186
186 254 186
186 254 186
186 254 186
186 254 186
186 254 186
186 254 186
186 254 186
186 254 186
186 254 186
186 254 186
186 254 186
186 254 186
186 254 186
186 254 186
186 254 186
186 254 186
186 254 186
186 254 186
186 254 186
186 254 186
186 254 186
186 254 186
186 254 186
186 254 186
186 254 186
186 254 186
186 254 186
186 254 186
186 254 186
186 254 186
186 254 186
186 254 186
186 254 186
186 254 186
186 254 186
186 254 186
186 254 186
186 254 186
186 254 186
186 254 186
186 254 186
186 254 186
186 254 186
186 254 186
186 254 186
186 254 186
186 254 186
186 254 186
186 254 186
186 254 186
186 254 186
254 186 186
0 186 186
0 186 186
0 186 186
186 254 186
186 254 186
186 254 186
186 254 186
186 254 186
186 254 186
186 254 186
186 254 186
186 254 186
186 254 186
186 254 186
186 254 186
186 254 186
186 254 186
186 254 186
186 254 186
186 254 186
186 254 186
186 254 186
186 254 186
186 254 186
186 254 186
186 254 186
186 254 186
186 254 186
186 254 186
186 254 186
186 254 186
186 254 186
186 254 186
186 254 186
186 254 186
186 254 186
186 254 186
186 254 186
186 254 186
186 254 186
186 254 186
186 254 186
186 254 186
186 254 186
186 254 186
186 254 186
186 254 186
186 254 186
186 254 186
186 254 186
186 254 186
186 254 186
186 254 186
186 254 186
186 254 186
186 254 186
186 254 186
186 254 186
186 254 186
186 254 186
186 254 186
186 254 186
254 186 186
254 186 186
0 186 186
0 186 186
0 186 186
0 186 186
0 186 186
186 254 186
186 254 186
186 254 186
186 254 186
186 254 186
186 254 186
186 254 186
186 254 186
186 254 186
186 254 186
186 254 186
186 254 186
186 254 186
186 254 186
186 254 186
186 254 186
186 254 186
186 254 186
186 254 186
186 254 186
186 254 186
186 254 186
186 254 186
186 254 186
186 254 186
186 254 186
186 254 186
186 254 186
186 254 186
186 254 186
186 254 186
186 254 186
186 254 186
186 254 186
186 254 186
186 254 186
186 254 186
186 254 186
186 254 186
186 254 186
186 254 186
186 254 186
186 254 186
186 254 186
186 254 186
186 254 186
186 254 186
186 254 186
186 254 186
186 254 186
186 254 186
186 254 186
186 254 186
186 254 186
186 254 186
254 186 186
254 186 186
254 186 186
254 186 186
0 186 186
0 186 186
0 186 186
0 186 186
0 186 186
0 186 186
0 186 186
186 254 186
186 254 186
186 254 186
186 254 186
186 254 186
186 254 186
186 254 186
186 254 186
186 254 186
186 254 186
186 254 186
186 254 186
186 254 186
186 254 186
186 254 186
186 254 186
186 254 186
186 254 186
186 254 186
186 254 186
186 254 186
186 254 186
186 254 186
186 254 186
186 254 186
186 254 186
186 254 186
186 254 186
186 254 186
186 254 186
186 254 186
186 254 186
186 254 186
186 254 186
186 254 186
186 254 186
186 254 186
186 254 186
186 254 186
186 254 186
186 254 186
186 254 186
186 254 186
186 254 186
186 254 186
186 254 186
186 254 186
186 254 186
186 254 186
186 254 186
186 254 186
254 186 186
254 186 186
254 186 186
254 186 186
254 186 186
254 186 186
0 186 186
0 186 186
0 186 186
0 186 186
0 186 186
0 186 186
0 186 186
0 186 186
186 254 186
186 254 186
186 254 186
186 254 186
186 254 186
186 254 186
186 254 186
186 254 186
186 254 186
186 254 186
186 254 186
186 254 186
186 254 186
186 254 186
186 254 186
186 254 186
186 254 186
186 254 186
186 254 186
186 254 186
186 254 186
186 254 186
186 254 186
186 254 186
186 254 186
186 254 186
186 254 186
186 254 186
186 254 186
186 254 186
186 254 186
186 254 186
186 254 186
186 254 186
186 254 186
186 254 186
186 254 186
186 254 186
186 254 186
186 254 186
186 254 186
186 254 186
186 254 186
186 254 186
186 254 186
186 254 186
186 254 186
186 254 186
186 254 186
254 186 186
254 186 186
254 186 186
254 186 186
254 186 186
254 186 186
254 186 186
0 186 186
0 186 186
0 186 186
0 186 186
0 186 186
0 186 186
0 186 186
0 186 186
0 186 186
0 186 186
186 254 186
186 254 186
186 254 186
186 254 186
186 254 186
186 254 186
186 254 186
186 254 186
186 254 186
186 254 186
186 254 186
186 254 186
186 254 186
186 254 186
186 254 186
186 254 186
186 254 186
186 254 186
186 254 186
186 254 186
186 254 186
186 254 186
186 254 186
186 254 186
186 254 186
186 254 186
186 254 186
186 254 186
186 254 186
186 254 186
186 254 186
186 254 186
186 254 186
186 254 186
186 254 186
186 254 186
186 254 186
186 254 186
186 254 186
186 254 186
186 254 186
186 254 186
186 254 186
186 254 186
186 254 186
254 186 186
254 186 186
254 186 186
254 186 186
254 186 186
254 186 186
254 186 186
254 186 186
254 186 186
0 186 186
0 186 186
0 186 186
0 186 186
0 186 186
0 186 186
0 186 186
0 186 186
0 186 186
0 186 186
0 186 186
186 254 186
186 254 186
186 254 186
186 254 186
186 254 186
186 254 186
186 254 186
186 254 186
186 254 186
186 254 186
186 254 186
186 254 186
186 254 186
186 254 186
186 254 186
186 254 186
186 254 186
186 254 186
186 254 186
186 254 186
186 254 186
186 254 186
186 254 186
186 254 186
186 254 186
186 254 186
186 254 186
186 254 186
186 254 186
186 254 186
186 254 186
186 254 186
186 254 186
186 254 186
186 254 186
186 254 186
186 254 186
186 254 186
186 254 186
186 254 186
186 254 186
186 254 186
186 254 186
254 186 186
254 186 186
254 186 186
254 186 186
254 186 186
254 186 186
254 186 186
254 186 186
254 186 186
254 186 186
0 186 186
0 186 186
0 186 186
0 186 186
0 186 186
0 186 186
0 186 186
0 186 186
0 186 186
0 186 186
0 186 186
0 186 186
186 186 0
186 186 0
186 186 0
186 186 0
186 186 0
186 186 0
186 186 0
186 186 0
186 186 0
186 186 0
186 186 0
186 186 0
186 186 0
186 186 0
186 186 0
186 186 0
186 186 0
186 186 0
148 240 225
168 239 232
186 239 234
201 239 232
216 240 225
186 186 0
186 186 0
186 186 0
186 186 0
186 186 0
186 186 0
186 186 0
186 186 0
186 186 0
186 186 0
186 186 0
186 186 0
186 186 0
186 186 0
186 186 0
186 186 0
186 186 0
186 186 0
254 186 186
254 186 186
254 186 186
254 186 186
254 186 186
254 186 186
254 186 186
254 186 186
254 186 186
254 186 186
254 186 186
0 186 186
0 186 186
0 186 186
0 186 186
0 186 186
0 186 186
0 186 186
0 186 186
0 186 186
0 186 186
0 186 186
0 186 186
186 186 0
186 186 0
186 186 0
186 186 0
186 186 0
186 186 0
186 186 0
186 186 0
186 186 0
186 186 0
186 186 0
186 186 0
186 186 0
186 186 0
186 186 0
186 186 0
186 186 0
124 227 229
148 226 239
168 226 244
186 226 245
201 226 244
216 226 239
229 227 229
186 186 0
186 186 0
186 186 0
186 186 0
186 186 0
186 186 0
186 186 0
186 186 0
186 186 0
186 186 0
186 186 0
186 186 0
186 186 0
186 186 0
186 186 0
186 186 0
186 186 0
254 186 186
254 186 186
254 186 186
254 186 186
254 186 186
254 186 186
254 186 186
254 186 186
254 186 186
254 186 186
254 186 186
0 186 186
0 186 186
0 186 186
0 186 186
0 186 186
0 186 186
0 186 186
0 186 186
0 186 186
0 186 186
0 186 186
0 186 186
186 186 0
186 186 0
186 186 0
186 186 0
186 186 0
186 186 0
186 186 0
186 186 0
186 186 0
186 186 0
186 186 0
186 186 0
186 186 0
186 186 0
186 186 0
186 186 0
91 214 223
124 213 238
148 212 246
168 212 250
186 212 251
201 212 250
216 212 246
229 213 238
242 214 223
186 186 0
186 186 0
186 186 0
186 186 0
186 186 0
186 186 0
186 186 0
186 186 0
186 186 0
186 186 0
186 186 0
186 186 0
186 186 0
186 186 0
186 186 0
186 186 0
254 186 186
254 186 186
254 186 186
254 186 186
254 186 186
254 186 186
254 186 186
254 186 186
254 186 186
254 186 186
254 186 186
0 186 186
0 186 186
0 186 186
0 186 186
0 186 186
0 186 186
0 186 186
0 186 186
0 186 186
0 186 186
0 186 186
0 186 186
186 186 0
186 186 0
186 186 0
186 186 0
186 186 0
186 186 0
186 186 0
186 186 0
186 186 0
186 186 0
186 186 0
186 186 0
186 186 0
186 186 0
186 186 0
186 186 0
92 199 230
124 198 242
148 197 249
168 197 253
186 197 254
201 197 253
215 197 249
229 198 242
242 199 230
186 186 0
186 186 0
186 186 0
186 186 0
186 186 0
186 186 0
186 186 0
186 186 0
186 186 0
186 186 0
186 186 0
186 186 0
186 186 0
186 186 0
186 186 0
186 186 0
254 186 186
254 186 186
254 186 186
254 186 186
254 186 186
254 186 186
254 186 186
254 186 186
254 186 186
254 186 186
254 186 186
0 186 186
0 186 186
0 186 186
0 186 186
0 186 186
0 186 186
0 186 186
0 186 186
0 186 186
0 186 186
0 186 186
0 186 186
186 186 0
186 186 0
186 186 0
186 186 0
186 186 0
186 186 0
186 186 0
186 186 0
186 186 0
186 186 0
186 186 0
186 186 0
186 186 0
186 186 0
186 186 0
186 186 0
92 183 231
124 182 243
148 181 250
168 181 253
186 181 254
201 181 253
215 181 250
229 182 243
242 183 231
186 186 0
186 186 0
186 186 0
186 186 0
186 186 0
186 186 0
186 186 0
186 186 0
186 186 0
186 186 0
186 186 0
186 186 0
186 186 0
186 186 0
186 186 0
186 186 0
254 186 186
254 186 186
254 186 186
254 186 186
254 186 186
254 186 186
254 186 186
254 186 186
254 186 186
254 186 186
254 186 186
0 186 186
0 186 186
0 186 186
0 186 186
0 186 186
0 186 186
0 186 186
0 186 186
0 186 186
0 186 186
0 186 186
0 186 186
186 186 0
186 186 0
186 186 0
186 186 0
186 186 0
186 186 0
186 186 0
186 186 0
186 186 0
186 186 0
186 186 0
186 186 0
186 186 0
186 186 0
186 186 0
186 186 0
92 165 228
124 164 241
148 163 248
168 163 252
186 163 253
201 163 252
216 163 248
229 164 241
242 165 228
186 186 0
186 186 0
186 186 0
186 186 0
186 186 0
186 186 0
186 186 0
186 186 0
186 186 0
186 186 0
186 186 0
186 186 0
186 186 0
186 186 0
186 186 0
186 186 0
254 186 186
254 186 186
254 186 186
254 186 186
254 186 186
254 186 186
254 186 186
254 186 186
254 186 186
254 186 186
254 186 186
0 186 186
0 186 186
0 186 186
0 186 186
0 186 186
0 186 186
0 186 186
0 186 186
0 186 186
0 186 186
0 186 186
0 186 186
186 186 0
186 186 0
186 186 0
186 186 0
186 186 0
186 186 0
186 186 0
186 186 0
186 186 0
186 186 0
186 186 0
186 186 0
186 186 0
186 186 0
186 186 0
186 186 0
91 145 220
124 144 236
148 143 243
168 143 247
186 143 249
201 143 247
216 143 243
229 144 236
242 145 220
186 186 0
186 186 0
186 186 0
186 186 0
186 186 0
186 186 0
186 186 0
186 186 0
186 186 0
186 186 0
186 186 0
186 186 0
186 186 0
186 186 0
186 186 0
186 186 0
254 186 186
254 186 186
254 186 186
254 186 186
254 186 186
254 186 186
254 186 186
254 186 186
254 186 186
254 186 186
254 186 186
0 186 186
0 186 186
0 186 186
0 186 186
0 186 186
0 186 186
0 186 186
0 186 186
0 186 186
0 186 186
0 186 186
0 186 186
186 186 0
186 186 0
186 186 0
186 186 0
186 186 0
186 186 0
186 186 0
186 186 0
186 186 0
186 186 0
186 186 0
186 186 0
186 186 0
186 186 0
186 186 0
186 186 0
186 186 0
123 120 225
148 119 235
168 119 240
186 118 241
201 119 240
216 119 235
229 120 225
186 186 0
186 186 0
186 186 0
186 186 0
186 186 0
186 186 0
186 186 0
186 186 0
186 186 0
186 186 0
186 186 0
186 186 0
186 186 0
186 186 0
186 186 0
186 186 0
186 186 0
254 186 186
254 186 186
254 186 186
254 186 186
254 186 186
254 186 186
254 186 186
254 186 186
254 186 186
254 186 186
254 186 186
0 186 186
0 186 186
0 186 186
0 186 186
0 186 186
0 186 186
0 186 186
0 186 186
0 186 186
0 186 186
0 186 186
0 186 186
186 186 0
186 186 0
186 186 0
186 186 0
186 186 0
186 186 0
186 186 0
186 186 0
186 186 0
186 186 0
186 186 0
186 186 0
186 186 0
186 186 0
186 186 0
186 186 0
186 186 0
186 186 0
147 87 218
168 86 226
186 86 229
201 86 226
216 87 218
186 186 0
186 186 0
186 186 0
186 186 0
186 186 0
186 186 0
186 186 0
186 186 0
186 186 0
186 186 0
186 186 0
186 186 0
186 186 0
186 186 0
186 186 0
186 186 0
186 186 0
186 186 0
254 186 186
254 186 186
254 186 186
254 186 186
254 186 186
254 186 186
254 186 186
254 186 186
254 186 186
254 186 186
254 186 186
0 186 186
0 186 186
0 186 186
0 186 186
0 186 186
0 186 186
0 186 186
0 186 186
0 186 186
0 186 186
0 186 186
0 186 186
186 186 0
186 186 0
186 186 0
186 186 0
186 186 0
186 186 0
186 186 0
186 186 0
186 186 0
186 186 0
186 186 0
186 186 0
186 186 0
186 186 0
186 186 0
186 186 0
186 186 0
186 186 0
186 186 0
186 186 0
186 3 187
186 186 0
186 186 0
186 186 0
186 186 0
186 186 0
186 186 0
186 186 0
186 186 0
186 186 0
186 186 0
186 186 0
186 186 0
186 186 0
186 186 0
186 186 0
186 186 0
186 186 0
186 186 0
186 186 0
186 186 0
254 186 186
254 186 186
254 186 186
254 186 186
254 186 186
254 186 186
254 186 186
254 186 186
254 186 186
254 186 186
254 186 186
0 186 186
0 186 186
0 186 186
0 186 186
0 186 186
0 186 186
0 186 186
0 186 186
0 186 186
0 186 186
0 186 186
0 186 186
186 186 0
186 186 0
186 186 0
186 186 0
186 186 0
186 186 0
186 186 0
186 186 0
186 186 0
186 186 0
186 186 0
186 186 0
186 186 0
186 186 0
186 186 0
186 186 0
186 186 0
186 186 0
186 186 0
186 186 0
186 186 0
186 186 0
186 186 0
186 186 0
186 186 0
186 186 0
186 186 0
186 186 0
186 186 0
186 186 0
186 186 0
186 186 0
186 186 0
186 186 0
186 186 0
186 186 0
186 186 0
186 186 0
186 186 0
186 186 0
186 186 0
254 186 186
254 186 186
254 186 186
254 186 186
254 186 186
254 186 186
254 186 186
254 186 186
254 186 186
254 186 186
254 186 186
0 186 186
0 186 186
0 186 186
0 186 186
0 186 186
0 186 186
0 186 186
0 186 186
0 186 186
0 186 186
0 186 186
0 186 186
186 186 0
186 186 0
186 186 0
186 186 0
186 186 0
186 186 0
186 186 0
186 186 0
186 186 0
186 186 0
186 186 0
186 186 0
186 186 0
186 186 0
186 186 0
186 186 0
186 186 0
186 186 0
186 186 0
186 186 0
186 186 0
186 186 0
186 186 0
186 186 0
186 186 0
186 186 0
186 186 0
186 186 0
186 186 0
186 186 0
186 186 0
186 186 0
186 186 0
186 186 0
186 186 0
186 186 0
186 186 0
186 186 0
186 186 0
186 186 0
186 186 0
254 186 186
254 186 186
254 186 186
254 186 186
254 186 186
254 186 186
254 186 186
254 186 186
254 186 186
254 186 186
254 186 186
0 186 186
0 186 186
0 186 186
0 186 186
0 186 186
0 186 186
0 186 186
0 186 186
0 186 186
0 186 186
0 186 186
0 186 186
186 186 0
186 186 0
186 186 0
186 186 0
186 186 0
186 186 0
186 186 0
186 186 0
186 186 0
186 186 0
186 186 0
186 186 0
186 186 0
186 186 0
186 186 0
186 186 0
186 186 0
186 186 0
186 186 0
186 186 0
186 186 0
186 186 0
186 186 0
186 186 0
186 186 0
186 186 0
186 186 0
186 186 0
186 186 0
186 186 0
186 186 0
186 186 0
186 186 0
186 186 0
186 186 0
186 186 0
186 186 0
186 186 0
186 186 0
186 186 0
186 186 0
254 186 186
254 186 186
254 186 186
254 186 186
254 186 186
254 186 186
254 186 186
254 186 186
254 186 186
254 186 186
254 186 186
0 186 186
0 186 186
0 186 186
0 186 186
0 186 186
0 186 186
0 186 186
0 186 186
0 186 186
0 186 186
0 186 186
0 186 186
186 186 0
186 186 0
186 186 0
186 186 0
186 186 0
186 186 0
186 186 0
186 186 0
186 186 0
186 186 0
186 186 0
186 186 0
186 186 0
186 186 0
186 186 0
186 186 0
186 186 0
186 186 0
186 186 0
186 186 0
186 186 0
186 186 0
186 186 0
186 186 0
186 186 0
186 186 0
186 186 0
186 186 0
186 186 0
186 186 0
186 186 0
186 186 0
186 186 0
186 186 0
186 186 0
186 186 0
186 186 0
186 186 0
186 186 0
186 186 0
186 186 0
254 186 186
254 186 186
254 186 186
254 186 186
254 186 186
254 186 186
254 186 186
254 186 186
254 186 186
254 186 186
254 186 186
0 186 186
0 186 186
0 186 186
0 186 186
0 186 186
0 186 186
0 186 186
0 186 186
0 186 186
0 186 186
0 186 186
0 186 186
186 186 0
186 186 0
186 186 0
186 186 0
186 186 0
186 186 0
186 186 0
186 186 0
186 186 0
186 186 0
186 186 0
186 186 0
186 186 0
186 186 0
186 186 0
186 186 0
186 186 0
186 186 0
186 186 0
186 186 0
186 186 0
186 186 0
186 186 0
186 186 0
186 186 0
186 186 0
186 186 0
186 186 0
186 186 0
186 186 0
186 186 0
186 186 0
186 186 0
186 186 0
186 186 0
186 186 0
186 186 0
186 186 0
186 186 0
186 186 0
186 186 0
254 186 186
254 186 186
254 186 186
254 186 186
254 186 186
254 186 186
254 186 186
254 186 186
254 186 186
254 186 186
254 186 186
0 186 186
0 186 186
0 186 186
0 186 186
0 186 186
0 186 186
0 186 186
0 186 186
0 186 186
0 186 186
0 186 186
0 186 186
186 186 0
186 186 0
186 186 0
186 186 0
186 186 0
186 186 0
186 186 0
186 186 0
186 186 0
186 186 0
186 186 0
186 186 0
186 186 0
186 186 0
186 186 0
186 186 0
186 186 0
186 186 0
186 186 0
186 186 0
186 186 0
186 186 0
186 186 0
186 186 0
186 186 0
186 186 0
186 186 0
186 186 0
186 186 0
186 186 0
186 186 0
186 186 0
186 186 0
186 186 0
186 186 0
186 186 0
186 186 0
186 186 0
186 186 0
186 186 0
186 186 0
254 186 186
254 186 186
254 186 186
254 186 186
254 186 186
254 186 186
254 186 186
254 186 186
254 186 186
254 186 186
254 186 186
0 186 186
0 186 186
0 186 186
0 186 186
0 186 186
0 186 186
0 186 186
0 186 186
0 186 186
0 186 186
0 186 186
0 186 186
186 186 0
186 186 0
186 186 0
186 186 0
186 186 0
186 186 0
186 186 0
186 186 0
186 186 0
186 186 0
186 186 0
186 186 0
186 186 0
186 186 0
186 186 0
186 186 0
186 186 0
186 186 0
186 186 0
186 186 0
186 186 0
186 186 0
186 186 0
186 186 0
186 186 0
186 186 0
186 186 0
186 186 0
186 186 0
186 186 0
186 186 0
186 186 0
186 186 0
186 186 0
186 186 0
186 186 0
186 186 0
186 186 0
186 186 0
186 186 0
186 186 0
254 186 186
254 186 186
254 186 186
254 186 186
254 186 186
254 186 186
254 186 186
254 186 186
254 186 186
254 186 186
254 186 186
0 186 186
0 186 186
0 186 186
0 186 186
0 186 186
0 186 186
0 186 186
0 186 186
0 186 186
0 186 186
0 186 186
0 186 186
186 186 0
186 186 0
186 186 0
186 186 0
186 186 0
186 186 0
186 186 0
186 186 0
186 186 0
186 186 0
186 186 0
186 186 0
186 186 0
186 186 0
186 186 0
186 186 0
186 186 0
186 186 0
186 186 0
186 186 0
186 186 0
186 186 0
186 186 0
186 186 0
186 186 0
186 186 0
186 186 0
186 186 0
186 186 0
186 186 0
186 186 0
186 186 0
186 186 0
186 186 0
186 186 0
186 186 0
186 186 0
186 186 0
186 186 0
186 186 0
186 186 0
254 186 186
254 186 186
254 186 186
254 186 186
254 186 186
254 186 186
254 186 186
254 186 186
254 186 186
254 186 186
254 186 186
0 186 186
0 186 186
0 186 186
0 186 186
0 186 186
0 186 186
0 186 186
0 186 186
0 186 186
0 186 186
0 186 186
0 186 186
186 186 0
186 186 0
186 186 0
186 186 0
186 186 0
186 186 0
186 186 0
186 186 0
186 186 0
186 186 0
186 186 0
186 186 0
186 186 0
186 186 0
186 186 0
186 186 0
186 186 0
186 186 0
186 186 0
186 186 0
186 186 0
186 186 0
186 186 0
186 186 0
186 186 0
186 186 0
186 186 0
186 186 0
186 186 0
186 186 0
186 186 0
186 186 0
186 186 0
186 186 0
186 186 0
186 186 0
186 186 0
186 186 0
186 186 0
186 186 0
186 186 0
254 186 186
254 186 186
254 186 186
254 186 186
254 186 186
254 186 186
254 186 186
254 186 186
254 186 186
254 186 186
254 186 186
0 186 186
0 186 186
0 186 186
0 186 186
0 186 186
0 186 186
0 186 186
0 186 186
0 186 186
0 186 186
0 186 186
0 186 186
186 186 0
186 186 0
186 186 0
186 186 0
186 186 0
186 186 0
186 186 0
186 186 0
186 186 0
186 186 0
186 186 0
186 186 0
186 186 0
186 186 0
186 186 0
186 186 0
186 186 0
186 186 0
186 186 0
186 186 0
186 186 0
186 186 0
186 186 0
186 186 0
186 186 0
186 186 0
186 186 0
186 186 0
186 186 0
186 186 0
186 186 0
186 186 0
186 186 0
186 186 0
186 186 0
186 186 0
186 186 0
186 186 0
186 186 0
186 186 0
186 186 0
254 186 186
254 186 186
254 186 186
254 186 186
254 186 186
254 186 186
254 186 186
254 186 186
254 186 186
254 186 186
254 186 186
0 186 186
0 186 186
0 186 186
0 186 186
0 186 186
0 186 186
0 186 186
0 186 186
0 186 186
0 186 186
0 186 186
0 186 186
186 186 0
186 186 0
186 186 0
186 186 0
186 186 0
186 186 0
186 186 0
186 186 0
186 186 0
186 186 0
186 186 0
186 186 0
186 186 0
186 186 0
186 186 0
186 186 0
186 186 0
186 186 0
186 186 0
186 186 0
186 186 0
186 186 0
186 186 0
186 186 0
186 186 0
186 186 0
186 186 0
186 186 0
186 186 0
186 186 0
186 186 0
186 186 0
186 186 0
186 186 0
186 186 0
186 186 0
186 186 0
186 186 0
186 186 0
186 186 0
186 186 0
254 186 186
254 186 186
254 186 186
254 186 186
254 186 186
254 186 186
254 186 186
254 186 186
254 186 186
254 186 186
254 186 186
0 186 186
0 186 186
0 186 186
0 186 186
0 186 186
0 186 186
0 186 186
0 186 186
0 186 186
0 186 186
0 186 186
0 186 186
186 186 0
186 186 0
186 186 0
186 186 0
186 186 0
186 186 0
186 186 0
186 186 0
186 186 0
186 186 0
186 186 0
186 186 0
186 186 0
186 186 0
186 186 0
186 186 0
186 186 0
186 186 0
186 186 0
186 186 0
186 186 0
186 186 0
186 186 0
186 186 0
186 186 0
186 186 0
186 186 0
186 186 0
186 186 0
186 186 0
186 186 0
186 186 0
186 186 0
186 186 0
186 186 0
186 186 0
186 186 0
186 186 0
186 186 0
186 186 0
186 186 0
254 186 186
254 186 186
254 186 186
254 186 186
254 186 186
254 186 186
254 186 186
254 186 186
254 186 186
254 186 186
254 186 186
0 186 186
0 186 186
0 186 186
0 186 186
0 186 186
0 186 186
0 186 186
0 186 186
0 186 186
0 186 186
0 186 186
0 186 186
186 186 0
186 186 0
186 186 0
186 186 0
186 186 0
145 249 190
160 250 207
173 250 212
183 251 213
193 251 213
202 250 210
211 250 203
218 249 187
186 186 0
186 186 0
186 186 0
186 186 0
186 186 0
186 186 0
186 186 0
186 186 0
186 186 0
186 186 0
186 186 0
186 186 0
186 186 0
186 186 0
186 186 0
186 186 0
186 186 0
186 186 0
186 186 0
186 186 0
186 186 0
186 186 0
186 186 0
186 186 0
186 186 0
186 186 0
186 186 0
186 186 0
254 186 186
254 186 186
254 186 186
254 186 186
254 186 186
254 186 186
254 186 186
254 186 186
254 186 186
254 186 186
254 186 186
0 186 186
0 186 186
0 186 186
0 186 186
0 186 186
0 186 186
0 186 186
0 186 186
0 186 186
0 186 186
0 186 186
0 186 186
186 186 0
186 186 0
186 186 0
186 186 0
134 243 209
150 244 219
163 244 224
175 244 226
185 245 227
195 244 226
203 244 224
212 244 220
220 243 214
227 243 203
186 186 0
186 186 0
186 186 0
186 186 0
186 186 0
186 186 0
186 186 0
186 186 0
186 186 0
186 186 0
186 186 0
186 186 0
186 186 0
186 186 0
186 186 0
186 186 0
186 186 0
164 252 196
173 253 202
182 253 204
191 253 203
200 253 200
209 252 186
186 186 0
186 186 0
186 186 0
186 186 0
254 186 186
254 186 186
254 186 186
254 186 186
254 186 186
254 186 186
254 186 186
254 186 186
254 186 186
254 186 186
254 186 186
0 186 186
0 186 186
0 186 186
0 186 186
0 186 186
0 186 186
0 186 186
0 186 186
0 186 186
0 186 186
0 186 186
0 186 186
186 186 0
186 186 0
186 186 0
120 236 214
138 237 224
152 238 230
165 238 233
176 238 235
186 238 235
195 238 235
204 238 233
212 238 230
220 237 225
228 236 218
235 235 206
186 186 0
186 186 0
186 186 0
186 186 0
186 186 0
186 186 0
186 186 0
186 186 0
186 186 0
186 186 0
186 186 0
186 186 0
186 186 0
130 245 179
141 247 202
152 247 211
162 248 215
171 248 218
180 248 220
189 248 220
197 248 219
206 248 216
214 247 210
223 246 196
186 186 0
186 186 0
254 186 186
254 186 186
254 186 186
254 186 186
254 186 186
254 186 186
254 186 186
254 186 186
254 186 186
254 186 186
254 186 186
0 186 186
0 186 186
0 186 186
0 186 186
0 186 186
0 186 186
0 186 186
0 186 186
0 186 186
0 186 186
0 186 186
0 186 186
186 186 0
186 186 0
101 228 213
123 230 226
140 230 233
154 231 237
166 231 240
177 231 241
187 231 242
196 231 241
205 231 239
213 231 237
221 230 233
228 230 227
236 229 219
242 227 203
186 186 0
186 186 0
186 186 0
186 186 0
186 186 0
186 186 0
186 186 0
186 186 0
186 186 0
186 186 0
186 186 0
114 239 193
127 241 209
139 242 217
150 242 222
160 242 226
170 243 228
179 243 229
188 243 230
196 243 229
204 242 227
212 242 223
220 242 218
229 241 207
186 186 0
254 186 186
254 186 186
254 186 186
254 186 186
254 186 186
254 186 186
254 186 186
254 186 186
254 186 186
254 186 186
254 186 186
0 186 186
0 186 186
0 186 186
0 186 186
0 186 186
0 186 186
0 186 186
0 186 186
0 186 186
0 186 186
0 186 186
0 186 186
186 186 0
68 219 197
104 222 224
125 223 233
141 223 239
155 224 242
167 224 245
177 224 246
187 224 246
197 224 245
205 224 244
213 224 242
221 223 238
229 223 233
236 222 226
243 221 215
249 218 186
186 186 0
186 186 0
186 186 0
186 186 0
186 186 0
186 186 0
186 186 0
186 186 0
186 186 0
97 233 193
112 234 211
126 235 220
138 236 226
149 236 230
159 237 233
169 237 235
178 237 236
187 237 236
195 237 236
203 237 234
211 237 232
219 236 228
227 236 221
235 234 209
254 186 186
254 186 186
254 186 186
254 186 186
254 186 186
254 186 186
254 186 186
254 186 186
254 186 186
254 186 186
254 186 186
0 186 186
0 186 186
0 186 186
0 186 186
0 186 186
0 186 186
0 186 186
0 186 186
0 186 186
0 186 186
0 186 186
0 186 186
186 186 0
77 212 216
107 214 230
126 215 238
142 216 243
155 216 246
167 217 248
178 217 249
188 217 249
197 217 249
206 217 247
214 216 245
221 216 242
229 215 237
236 214 231
243 213 222
250 211 205
186 186 0
186 186 0
186 186 0
186 186 0
186 186 0
186 186 0
186 186 0
186 186 0
186 186 0
95 227 209
111 229 220
125 230 227
137 230 232
148 231 236
159 231 238
168 231 240
177 231 241
186 231 242
194 231 241
202 231 240
210 231 238
218 230 235
226 230 230
233 229 222
242 227 204
254 186 186
254 186 186
254 186 186
254 186 186
254 186 186
254 186 186
254 186 186
254 186 186
254 186 186
254 186 186
0 186 186
0 186 186
0 186 186
0 186 186
0 186 186
0 186 186
0 186 186
0 186 186
0 186 186
0 186 186
0 186 186
0 186 186
186 186 0
81 204 223
108 206 234
127 207 241
143 208 246
156 208 249
168 209 251
178 209 252
188 209 252
197 209 251
206 209 250
214 208 248
222 208 245
229 207 240
236 206 234
243 205 226
250 203 211
186 186 0
186 186 0
186 186 0
186 186 0
186 186 0
186 186 0
186 186 0
186 186 0
73 220 202
94 221 217
110 223 226
124 223 232
137 224 237
148 225 240
158 225 243
168 225 244
177 225 245
185 225 245
194 225 245
202 225 244
209 225 242
217 224 240
225 224 235
232 223 229
240 222 219
254 186 186
254 186 186
254 186 186
254 186 186
254 186 186
254 186 186
254 186 186
254 186 186
254 186 186
254 186 186
0 186 186
0 186 186
0 186 186
0 186 186
0 186 186
0 186 186
0 186 186
0 186 186
0 186 186
0 186 186
0 186 186
0 186 186
186 186 0
82 196 226
109 198 237
128 199 243
143 200 248
156 200 250
168 200 252
178 201 253
188 201 253
197 201 253
206 200 252
214 200 249
222 199 246
229 199 242
236 198 236
243 196 228
250 194 215
186 186 0
186 186 0
186 186 0
186 186 0
186 186 0
186 186 0
186 186 0
186 186 0
72 213 211
93 215 223
110 216 231
124 217 236
136 218 240
147 218 243
158 219 246
167 219 247
176 219 248
185 219 249
193 219 248
201 219 247
209 219 246
217 218 243
224 218 240
232 217 234
239 215 226
249 213 207
254 186 186
254 186 186
254 186 186
254 186 186
254 186 186
254 186 186
254 186 186
254 186 186
254 186 186
0 186 186
0 186 186
0 186 186
0 186 186
0 186 186
0 186 186
0 186 186
0 186 186
0 186 186
0 186 186
0 186 186
0 186 186
186 186 0
83 186 227
109 189 238
128 190 244
143 191 249
156 191 251
168 192 253
179 192 254
188 192 254
197 192 254
206 191 252
214 191 250
222 190 247
229 190 243
236 188 237
243 187 229
250 184 216
186 186 0
186 186 0
186 186 0
186 186 0
186 186 0
186 186 0
186 186 0
36 203 193
71 207 216
93 208 227
109 209 234
123 210 239
136 211 243
147 211 246
157 212 248
167 212 250
176 212 251
185 212 251
193 212 251
201 212 250
209 212 248
216 211 246
224 211 243
231 210 238
239 209 230
247 207 217
254 186 186
254 186 186
254 186 186
254 186 186
254 186 186
254 186 186
254 186 186
254 186 186
254 186 186
0 186 186
0 186 186
0 186 186
0 186 186
0 186 186
0 186 186
0 186 186
0 186 186
0 186 186
0 186 186
0 186 186
0 186 186
186 186 0
82 176 226
109 178 238
128 180 244
143 181 249
156 182 251
168 182 253
178 182 254
188 182 254
197 182 254
206 182 253
214 181 250
222 181 247
229 180 243
236 178 237
243 177 228
250 174 214
186 186 0
186 186 0
186 186 0
186 186 0
186 186 0
186 186 0
186 186 0
35 196 201
71 199 219
92 201 229
109 202 236
123 203 241
136 204 245
147 204 248
157 205 250
167 205 251
176 205 252
184 205 253
193 205 252
201 205 252
208 205 250
216 204 248
223 204 245
231 203 240
238 202 233
246 200 222
254 186 186
254 186 186
254 186 186
254 186 186
254 186 186
254 186 186
254 186 186
254 186 186
254 186 186
0 186 186
0 186 186
0 186 186
0 186 186
0 186 186
0 186 186
0 186 186
0 186 186
0 186 186
0 186 186
0 186 186
0 186 186
186 186 0
80 164 222
108 167 236
127 169 243
143 170 248
156 171 251
168 172 253
178 172 254
188 172 254
197 172 253
206 171 252
214 171 250
222 170 246
229 169 242
236 167 236
243 165 226
250 161 209
186 186 0
186 186 0
186 186 0
186 186 0
186 186 0
186 186 0
186 186 0
34 188 203
70 191 221
92 193 231
109 195 237
123 196 242
136 196 246
147 197 249
157 197 251
167 198 253
176 198 253
184 198 254
193 198 254
200 198 253
208 198 251
216 197 249
223 196 246
230 195 242
238 194 235
246 192 224
254 186 186
254 186 186
254 186 186
254 186 186
254 186 186
254 186 186
254 186 186
254 186 186
254 186 186
0 186 186
0 186 186
0 186 186
0 186 186
0 186 186
0 186 186
0 186 186
0 186 186
0 186 186
0 186 186
0 186 186
0 186 186
186 186 0
73 148 209
106 155 232
126 157 240
142 158 245
155 159 249
167 160 251
178 160 252
188 160 252
197 160 252
206 160 250
214 159 248
221 158 244
229 157 239
236 155 232
243 152 221
186 186 0
186 186 0
186 186 0
186 186 0
186 186 0
186 186 0
186 186 0
186 186 0
34 179 202
70 183 221
92 185 231
109 186 238
123 187 243
135 188 247
147 189 249
157 190 252
167 190 253
176 190 254
184 190 254
192 190 254
200 190 253
208 190 252
216 189 250
223 188 247
230 187 242
238 186 236
246 183 224
254 186 186
254 186 186
254 186 186
254 186 186
254 186 186
254 186 186
254 186 186
254 186 186
254 186 186
0 186 186
0 186 186
0 186 186
0 186 186
0 186 186
0 186 186
0 186 186
0 186 186
0 186 186
0 186 186
0 186 186
186 0 186
186 0 186
186 0 186
103 139 224
125 143 235
141 145 242
155 146 246
167 147 248
178 147 249
187 147 250
197 147 249
205 147 247
213 146 245
221 145 241
229 143 235
236 140 227
243 135 211
186 0 186
186 0 186
186 0 186
186 0 186
186 0 186
186 0 186
186 0 186
186 0 186
36 168 196
71 173 220
92 176 231
109 177 238
123 179 243
136 180 246
147 181 249
157 181 252
167 182 253
176 182 254
184 182 254
192 182 254
200 182 253
208 181 252
216 181 250
223 180 247
231 179 242
238 177 235
246 174 222
254 186 186
254 186 186
254 186 186
254 186 186
254 186 186
254 186 186
254 186 186
254 186 186
254 186 186
0 186 186
0 186 186
0 186 186
0 186 186
0 186 186
0 186 186
0 186 186
0 186 186
0 186 186
0 186 186
0 186 186
186 0 186
186 0 186
186 0 186
186 0 186
122 125 227
140 128 236
154 130 241
166 132 244
177 132 245
187 132 246
196 132 245
205 131 243
213 130 240
221 128 236
228 126 229
235 121 217
186 0 186
186 0 186
186 0 186
186 0 186
186 0 186
186 0 186
186 0 186
186 0 186
186 0 186
186 0 186
71 162 217
92 166 229
109 168 236
123 169 242
136 170 246
147 171 249
157 172 251
167 172 253
176 173 254
184 173 254
193 173 254
201 173 253
208 172 251
216 171 249
223 170 246
231 169 241
239 167 233
247 162 217
254 186 186
254 186 186
254 186 186
254 186 186
254 186 186
254 186 186
254 186 186
254 186 186
254 186 186
0 186 186
0 186 186
0 186 186
0 186 186
0 186 186
0 186 186
0 186 186
0 186 186
0 186 186
0 186 186
186 0 186
186 0 186
186 0 186
186 0 186
186 0 186
186 0 186
137 106 224
152 110 233
165 112 237
176 113 239
186 114 240
195 113 239
204 112 237
212 110 233
220 107 227
227 102 215
186 0 186
186 0 186
186 0 186
186 0 186
186 0 186
186 0 186
186 0 186
186 0 186
186 0 186
186 0 186
186 0 186
72 150 210
93 154 225
110 157 234
124 159 240
136 160 244
147 161 247
157 162 250
167 163 251
176 163 252
185 163 253
193 163 252
201 163 252
209 162 250
216 161 247
224 160 244
231 158 238
239 155 229
186 0 186
254 186 186
254 186 186
254 186 186
254 186 186
254 186 186
254 186 186
254 186 186
254 186 186
254 186 186
0 186 186
0 186 186
0 186 186
0 186 186
0 186 186
0 186 186
0 186 186
0 186 186
0 186 186
186 0 186
186 0 186
186 0 186
186 0 186
186 0 186
186 0 186
186 0 186
186 0 186
147 73 209
162 83 223
174 86 228
185 87 229
194 87 228
203 84 225
211 80 218
186 0 186
186 0 186
186 0 186
186 0 186
186 0 186
186 0 186
186 0 186
186 0 186
186 0 186
186 0 186
186 0 186
186 0 186
186 0 186
186 0 186
94 141 219
110 144 230
124 147 237
136 149 241
148 150 245
158 151 248
167 152 249
176 152 250
185 152 251
193 152 250
201 152 249
209 151 248
217 150 245
224 148 240
232 146 234
241 141 220
186 0 186
186 0 186
254 186 186
254 186 186
254 186 186
254 186 186
254 186 186
254 186 186
254 186 186
254 186 186
0 186 186
0 186 186
0 186 186
0 186 186
0 186 186
0 186 186
0 186 186
0 186 186
186 0 186
186 0 186
186 0 186
186 0 186
186 0 186
186 0 186
186 0 186
186 0 186
186 0 186
186 0 186
186 0 186
186 0 186
186 0 186
186 0 186
186 0 186
186 0 186
186 0 186
186 0 186
186 0 186
186 0 186
186 0 186
186 0 186
186 0 186
186 0 186
186 0 186
186 0 186
186 0 186
186 0 186
186 0 186
186 0 186
96 121 203
111 129 223
125 133 232
137 135 237
148 137 241
158 138 244
168 139 246
177 139 247
186 140 248
194 139 247
202 139 246
210 138 244
217 137 241
225 134 235
233 130 225
186 0 186
186 0 186
186 0 186
186 0 186
254 186 186
254 186 186
254 186 186
254 186 186
254 186 186
254 186 186
254 186 186
0 186 186
0 186 186
0 186 186
0 186 186
0 186 186
0 186 186
0 186 186
186 0 186
186 0 186
186 0 186
186 0 186
186 0 186
186 0 186
186 0 186
186 0 186
186 0 186
186 0 186
186 0 186
186 0 186
186 0 186
186 0 186
186 0 186
186 0 186
186 0 186
186 0 186
186 0 186
186 0 186
186 0 186
186 0 186
186 0 186
186 0 186
186 0 186
186 0 186
186 0 186
186 0 186
186 0 186
186 0 186
186 0 186
186 0 186
113 107 206
126 115 223
138 119 231
149 121 236
159 123 240
169 124 242
178 125 243
186 125 243
195 125 243
203 124 241
211 122 239
218 120 234
227 116 225
186 0 186
186 0 186
186 0 186
186 0 186
186 0 186
186 0 186
254 186 186
254 186 186
254 186 186
254 186 186
254 186 186
254 186 186
0 186 186
0 186 186
0 186 186
0 186 186
0 186 186
0 186 186
186 0 186
186 0 186
186 0 186
186 0 186
186 0 186
186 0 186
186 0 186
186 0 186
186 0 186
186 0 186
186 0 186
186 0 186
186 0 186
186 0 186
186 0 186
186 0 186
186 0 186
186 0 186
186 0 186
186 0 186
186 0 186
186 0 186
186 0 186
186 0 186
186 0 186
186 0 186
186 0 186
186 0 186
186 0 186
186 0 186
186 0 186
186 0 186
186 0 186
186 0 186
186 0 186
139 96 219
150 100 227
160 103 232
170 105 235
179 106 237
187 106 237
196 106 236
204 104 234
212 102 229
221 96 220
186 0 186
186 0 186
186 0 186
186 0 186
186 0 186
186 0 186
186 0 186
186 0 186
254 186 186
254 186 186
254 186 186
254 186 186
254 186 186
0 186 186
0 186 186
0 186 186
0 186 186
0 186 186
186 0 186
186 0 186
186 0 186
186 0 186
186 0 186
186 0 186
186 0 186
186 0 186
186 0 186
186 0 186
186 0 186
186 0 186
186 0 186
186 0 186
186 0 186
186 0 186
186 0 186
186 0 186
186 0 186
186 0 186
186 0 186
186 0 186
186 0 186
186 0 186
186 0 186
186 0 186
186 0 186
186 0 186
186 0 186
186 0 186
186 0 186
186 0 186
186 0 186
186 0 186
186 0 186
186 0 186
186 0 186
186 0 186
162 70 216
171 75 222
180 77 225
189 78 225
198 76 222
207 69 215
186 0 186
186 0 186
186 0 186
186 0 186
186 0 186
186 0 186
186 0 186
186 0 186
186 0 186
186 0 186
186 0 186
254 186 186
254 186 186
254 186 186
254 186 186
0 186 186
0 186 186
0 186 186
0 186 186
186 0 186
186 0 186
186 0 186
186 0 186
186 0 186
186 0 186
186 0 186
186 0 186
186 0 186
186 0 186
186 0 186
186 0 186
186 0 186
186 0 186
186 0 186
186 0 186
186 0 186
186 0 186
186 0 186
186 0 186
186 0 186
186 0 186
186 0 186
186 0 186
186 0 186
186 0 186
186 0 186
186 0 186
186 0 186
186 0 186
186 0 186
186 0 186
186 0 186
186 0 186
186 0 186
186 0 186
186 0 186
186 0 186
186 0 186
186 0 186
186 0 186
186 0 186
186 0 186
186 0 186
186 0 186
186 0 186
186 0 186
186 0 186
186 0 186
186 0 186
186 0 186
186 0 186
186 0 186
186 0 186
186 0 186
186 0 186
186 0 186
254 186 186
254 186 186
254 186 186
0 186 186
0 186 186
0 186 186
186 0 186
186 0 186
186 0 186
186 0 186
186 0 186
186 0 186
186 0 186
186 0 186
186 0 186
186 0 186
186 0 186
186 0 186
186 0 186
186 0 186
186 0 186
186 0 186
186 0 186
186 0 186
186 0 186
186 0 186
186 0 186
186 0 186
186 0 186
186 0 186
186 0 186
186 0 186
186 0 186
186 0 186
186 0 186
186 0 186
186 0 186
186 0 186
186 0 186
186 0 186
186 0 186
186 0 186
186 0 186
186 0 186
186 0 186
186 0 186
186 0 186
186 0 186
186 0 186
186 0 186
186 0 186
186 0 186
186 0 186
186 0 186
186 0 186
186 0 186
186 0 186
186 0 186
186 0 186
186 0 186
186 0 186
186 0 186
186 0 186
186 0 186
186 0 186
254 186 186
254 186 186
0 186 186
0 186 186
186 0 186
186 0 186
186 0 186
186 0 186
186 0 186
186 0 186
186 0 186
186 0 186
186 0 186
186 0 186
186 0 186
186 0 186
186 0 186
186 0 186
186 0 186
186 0 186
186 0 186
186 0 186
186 0 186
186 0 186
186 0 186
186 0 186
186 0 186
186 0 186
186 0 186
186 0 186
186 0 186
186 0 186
186 0 186
186 0 186
186 0 186
186 0 186
186 0 186
186 0 186
186 0 186
186 0 186
186 0 186
186 0 186
186 0 186
186 0 186
186 0 186
186 0 186
186 0 186
186 0 186
186 0 186
186 0 186
186 0 186
186 0 186
186 0 186
186 0 186
186 0 186
186 0 186
186 0 186
186 0 186
186 0 186
186 0 186
186 0 186
186 0 186
186 0 186
186 0 186
186 0 186
254 186 186
0 186 186
186 0 186
186 0 186
186 0 186
186 0 186
186 0 186
186 0 186
186 0 186
186 0 186
186 0 186
186 0 186
186 0 186
186 0 186
186 0 186
186 0 186
186 0 186
186 0 186
186 0 186
186 0 186
186 0 186
186 0 186
186 0 186
186 0 186
186 0 186
186 0 186
186 0 186
186 0 186
186 0 186
186 0 186
186 0 186
186 0 186
186 0 186
186 0 186
186 0 186
186 0 186
186 0 186
186 0 186
186 0 186
186 0 186
186 0 186
186 0 186
186 0 186
186 0 186
186 0 186
186 0 186
186 0 186
186 0 186
186 0 186
186 0 186
186 0 186
186 0 186
186 0 186
186 0 186
186 0 186
186 0 186
186 0 186
186 0 186
186 0 186
186 0 186
186 0 186
186 0 186
186 0 186
186 0 186
186 0 186
186 0 186
186 0 186
186 0 186
186 0 186
186 0 186
186 0 186
186 0 186
186 0 186
186 0 186
186 0 186
186 0 186
186 0 186
186 0 186
186 0 186
186 0 186
186 0 186
186 0 186
186 0 186
186 0 186
186 0 186
186 0 186
186 0 186
186 0 186
186 0 186
186 0 186
186 0 186
186 0 186
186 0 186
186 0 186
186 0 186
186 0 186
186 0 186
186 0 186
186 0 186
186 0 186
186 0 186
186 0 186
186 0 186
186 0 186
186 0 186
186 0 186
186 0 186
186 0 186
186 0 186
186 0 186
186 0 186
186 0 186
186 0 186
186 0 186
186 0 186
186 0 186
186 0 186
186 0 186
186 0 186
186 0 186
186 0 186
186 0 186
186 0 186
186 0 186
186 0 186
186 0 186
186 0 186
186 0 186
186 0 186
186 0 186
186 0 186
186 0 186
186 0 186
186 0 186
186 0 186
186 0 186
186 0 186
186 0 186
186 0 186
186 0 186
186 0 186
186 0 186
186 0 186
186 0 186
186 0 186
186 0 186
186 0 186
186 0 186
186 0 186
186 0 186
186 0 186
186 0 186
186 0 186
186 0 186
186 0 186
186 0 186
186 0 186
186 0 186
186 0 186
186 0 186
186 0 186
186 0 186
186 0 186
186 0 186
186 0 186
186 0 186
186 0 186
186 0 186
186 0 186
186 0 186
186 0 186
186 0 186
186 0 186
186 0 186
186 0 186
186 0 186
186 0 186
186 0 186
186 0 186
186 0 186
186 0 186
186 0 186
186 0 186
186 0 186
186 0 186
186 0 186
186 0 186
186 0 186
186 0 186
186 0 186
186 0 186
186 0 186
186 0 186
186 0 186
186 0 186
186 0 186
186 0 186
186 0 186
186 0 186
186 0 186
186 0 186
186 0 186
186 0 186
186 0 186
186 0 186
186 0 186
186 0 186
186 0 186
186 0 186
186 0 186
186 0 186
186 0 186
186 0 186
186 0 186
186 0 186
186 0 186
186 0 186
186 0 186
186 0 186
186 0 186
186 0 186
186 0 186
186 0 186
186 0 186
186 0 186
186 0 186
186 0 186
186 0 186
186 0 186
186 0 186
186 0 186
186 0 186
186 0 186
186 0 186
186 0 186
186 0 186
186 0 186
186 0 186
186 0 186
186 0 186
186 0 186
186 0 186
186 0 186
186 0 186
186 0 186
186 0 186
186 0 186
186 0 186
186 0 186
186 0 186
186 0 186
186 0 186
186 0 186
186 0 186
186 0 186
186 0 186
186 0 186
186 0 186
186 0 186
186 0 186
186 0 186
186 0 186
186 0 186
186 0 186
186 0 186
186 0 186
186 0 186
186 0 186
186 0 186
186 0 186
186 0 186
186 0 186
186 0 186
186 0 186
186 0 186
186 0 186
186 0 186
186 0 186
186 0 186
186 0 186
186 0 186
186 0 186
186 0 186
186 0 186
186 0 186
186 0 186
186 0 186
186 0 186
186 0 186
186 0 186
186 0 186
186 0 186
186 0 186
186 0 186
186 0 186
186 0 186
186 0 186
186 0 186
186 0 186
186 0 186
186 0 186
186 0 186
186 0 186
186 0 186
186 0 186
186 0 186
186 0 186
186 0 186
186 0 186
186 0 186
186 0 186
186 0 186
186 0 186
186 0 186
186 0 186
186 0 186
186 0 186
186 0 186
186 0 186
186 0 186
186 0 186
